<svg width="88" height="88" viewBox="0 0 88 88" fill="none" xmlns="http://www.w3.org/2000/svg">
<g filter="url(#filter0_d_1795_182)">
<rect x="4" width="80" height="80" rx="40" fill="#BDACE6"/>
</g>
<g clip-path="url(#clip0_1795_182)">
<path d="M32.5531 35.5859H61.364V56.8812H32.5531V35.5859Z" fill="white"/>
<path d="M26.4336 40.4736V58.54H62.5664V22.4072H26.4336V40.4736ZM55.5509 39.0283C56.4163 39.2292 57.2028 39.6818 57.8113 40.3291C58.1463 40.6779 58.4375 41.0662 58.6785 41.4854C58.6785 41.5316 57.1176 42.5867 56.1666 43.1764C56.1319 43.1995 55.9931 43.0492 55.8399 42.8208C55.6663 42.5213 55.4196 42.2706 55.1229 42.0921C54.8262 41.9137 54.4891 41.8133 54.1431 41.8004C53.0476 41.7253 52.3423 42.3005 52.348 43.2457C52.3393 43.4811 52.3931 43.7145 52.5041 43.9221C52.7441 44.4222 53.1921 44.72 54.597 45.327C57.1841 46.4399 58.2912 47.1741 58.9791 48.2176C59.748 49.3739 59.9186 51.2412 59.3983 52.6229C58.8202 54.1261 57.4037 55.1464 55.4005 55.4846C54.4856 55.5895 53.5612 55.5798 52.6487 55.4557C51.2501 55.2252 49.9618 54.5537 48.9718 53.5393C48.6394 53.1721 47.9919 52.2154 48.0323 52.146C48.1377 52.0673 48.2488 51.9968 48.3648 51.935L49.7031 51.195L50.7409 50.5937L50.9577 50.9146C51.3236 51.4378 51.7893 51.8838 52.3278 52.2269C53.4841 52.8339 55.0623 52.7501 55.8428 52.0477C56.1049 51.7903 56.2683 51.4492 56.3048 51.0837C56.3412 50.7182 56.2483 50.3515 56.0423 50.0474C55.7532 49.6456 55.1751 49.3074 53.5592 48.6021C51.6948 47.7985 50.8912 47.3013 50.157 46.5093C49.6988 45.9865 49.3604 45.3699 49.1655 44.7026C49.0202 43.9402 48.9988 43.1594 49.1019 42.3901C49.4863 40.5893 50.8362 39.3318 52.8077 38.9589C53.7206 38.8462 54.6454 38.8715 55.5509 39.0341V39.0283ZM47.0698 40.543V42.023H42.3783V55.3864H39.0512V42.0201H34.3481V40.5748C34.3334 40.0764 34.345 39.5775 34.3828 39.0804C34.4059 39.0543 37.2734 39.0543 40.7422 39.0543H47.0524L47.0698 40.543Z" fill="#3C2C61"/>
</g>
<defs>
<filter id="filter0_d_1795_182" x="0.0324454" y="0" width="87.9351" height="87.9351" filterUnits="userSpaceOnUse" color-interpolation-filters="sRGB">
<feFlood flood-opacity="0" result="BackgroundImageFix"/>
<feColorMatrix in="SourceAlpha" type="matrix" values="0 0 0 0 0 0 0 0 0 0 0 0 0 0 0 0 0 0 127 0" result="hardAlpha"/>
<feOffset dy="3.96755"/>
<feGaussianBlur stdDeviation="1.98378"/>
<feComposite in2="hardAlpha" operator="out"/>
<feColorMatrix type="matrix" values="0 0 0 0 0 0 0 0 0 0 0 0 0 0 0 0 0 0 0.25 0"/>
<feBlend mode="normal" in2="BackgroundImageFix" result="effect1_dropShadow_1795_182"/>
<feBlend mode="normal" in="SourceGraphic" in2="effect1_dropShadow_1795_182" result="shape"/>
</filter>
<clipPath id="clip0_1795_182">
<rect width="37" height="37" fill="white" transform="translate(26 22)"/>
</clipPath>
</defs>
</svg>
