<svg width="42" height="42" viewBox="0 0 42 42" fill="none" xmlns="http://www.w3.org/2000/svg">
<g clip-path="url(#clip0_1781_32)" filter="url(#filter0_d_1781_32)">
<g filter="url(#filter1_d_1781_32)">
<mask id="path-1-outside-1_1781_32" maskUnits="userSpaceOnUse" x="12.8438" y="7.85938" width="17" height="19" fill="black">
<rect fill="white" x="12.8438" y="7.85938" width="17" height="19"/>
<path d="M28.1025 13.0879H18.5645V20.9268H23.3828V19.166H20.334V14.9375H28.1025V20.9268H28.1045V25.1553H28.1025V25.1562H23.3828V25.1553H18.5645V25.1562H13.8447V13.0879H13.8438V8.85938H28.1025V13.0879Z"/>
</mask>
<path d="M28.1025 13.0879H18.5645V20.9268H23.3828V19.166H20.334V14.9375H28.1025V20.9268H28.1045V25.1553H28.1025V25.1562H23.3828V25.1553H18.5645V25.1562H13.8447V13.0879H13.8438V8.85938H28.1025V13.0879Z" fill="white"/>
<path d="M28.1025 13.0879V14.0879H29.1025V13.0879H28.1025ZM18.5645 13.0879V12.0879H17.5645V13.0879H18.5645ZM18.5645 20.9268H17.5645V21.9268H18.5645V20.9268ZM23.3828 20.9268V21.9268H24.3828V20.9268H23.3828ZM23.3828 19.166H24.3828V18.166H23.3828V19.166ZM20.334 19.166H19.334V20.166H20.334V19.166ZM20.334 14.9375V13.9375H19.334V14.9375H20.334ZM28.1025 14.9375H29.1025V13.9375H28.1025V14.9375ZM28.1025 20.9268H27.1025V21.9268H28.1025V20.9268ZM28.1045 20.9268H29.1045V19.9268H28.1045V20.9268ZM28.1045 25.1553V26.1553H29.1045V25.1553H28.1045ZM28.1025 25.1553V24.1553H27.1025V25.1553H28.1025ZM28.1025 25.1562V26.1562H29.1025V25.1562H28.1025ZM23.3828 25.1562H22.3828V26.1562H23.3828V25.1562ZM23.3828 25.1553H24.3828V24.1553H23.3828V25.1553ZM18.5645 25.1553V24.1553H17.5645V25.1553H18.5645ZM18.5645 25.1562V26.1562H19.5645V25.1562H18.5645ZM13.8447 25.1562H12.8447V26.1562H13.8447V25.1562ZM13.8447 13.0879H14.8447V12.0879H13.8447V13.0879ZM13.8438 13.0879H12.8438V14.0879H13.8438V13.0879ZM13.8438 8.85938V7.85938H12.8438V8.85938H13.8438ZM28.1025 8.85938H29.1025V7.85938H28.1025V8.85938ZM28.1025 13.0879V12.0879H18.5645V13.0879V14.0879H28.1025V13.0879ZM18.5645 13.0879H17.5645V20.9268H18.5645H19.5645V13.0879H18.5645ZM18.5645 20.9268V21.9268H23.3828V20.9268V19.9268H18.5645V20.9268ZM23.3828 20.9268H24.3828V19.166H23.3828H22.3828V20.9268H23.3828ZM23.3828 19.166V18.166H20.334V19.166V20.166H23.3828V19.166ZM20.334 19.166H21.334V14.9375H20.334H19.334V19.166H20.334ZM20.334 14.9375V15.9375H28.1025V14.9375V13.9375H20.334V14.9375ZM28.1025 14.9375H27.1025V20.9268H28.1025H29.1025V14.9375H28.1025ZM28.1025 20.9268V21.9268H28.1045V20.9268V19.9268H28.1025V20.9268ZM28.1045 20.9268H27.1045V25.1553H28.1045H29.1045V20.9268H28.1045ZM28.1045 25.1553V24.1553H28.1025V25.1553V26.1553H28.1045V25.1553ZM28.1025 25.1553H27.1025V25.1562H28.1025H29.1025V25.1553H28.1025ZM28.1025 25.1562V24.1562H23.3828V25.1562V26.1562H28.1025V25.1562ZM23.3828 25.1562H24.3828V25.1553H23.3828H22.3828V25.1562H23.3828ZM23.3828 25.1553V24.1553H18.5645V25.1553V26.1553H23.3828V25.1553ZM18.5645 25.1553H17.5645V25.1562H18.5645H19.5645V25.1553H18.5645ZM18.5645 25.1562V24.1562H13.8447V25.1562V26.1562H18.5645V25.1562ZM13.8447 25.1562H14.8447V13.0879H13.8447H12.8447V25.1562H13.8447ZM13.8447 13.0879V12.0879H13.8438V13.0879V14.0879H13.8447V13.0879ZM13.8438 13.0879H14.8438V8.85938H13.8438H12.8438V13.0879H13.8438ZM13.8438 8.85938V9.85938H28.1025V8.85938V7.85938H13.8438V8.85938ZM28.1025 8.85938H27.1025V13.0879H28.1025H29.1025V8.85938H28.1025Z" fill="#7C7C7C" mask="url(#path-1-outside-1_1781_32)"/>
</g>
<g filter="url(#filter2_d_1781_32)">
<mask id="path-3-inside-2_1781_32" fill="white">
<path d="M10.0391 20.9268V28.5898H18.5938V34H3.99902V28.5898H4V20.9268H10.0391Z"/>
</mask>
<path d="M10.0391 20.9268V28.5898H18.5938V34H3.99902V28.5898H4V20.9268H10.0391Z" fill="#BDACE6"/>
<path d="M10.0391 20.9268H11.0391V19.9268H10.0391V20.9268ZM10.0391 28.5898H9.03906V29.5898H10.0391V28.5898ZM18.5938 28.5898H19.5938V27.5898H18.5938V28.5898ZM18.5938 34V35H19.5938V34H18.5938ZM3.99902 34H2.99902V35H3.99902V34ZM3.99902 28.5898V27.5898H2.99902V28.5898H3.99902ZM4 28.5898V29.5898H5V28.5898H4ZM4 20.9268V19.9268H3V20.9268H4ZM10.0391 20.9268H9.03906V28.5898H10.0391H11.0391V20.9268H10.0391ZM10.0391 28.5898V29.5898H18.5938V28.5898V27.5898H10.0391V28.5898ZM18.5938 28.5898H17.5938V34H18.5938H19.5938V28.5898H18.5938ZM18.5938 34V33H3.99902V34V35H18.5938V34ZM3.99902 34H4.99902V28.5898H3.99902H2.99902V34H3.99902ZM3.99902 28.5898V29.5898H4V28.5898V27.5898H3.99902V28.5898ZM4 28.5898H5V20.9268H4H3V28.5898H4ZM4 20.9268V21.9268H10.0391V20.9268V19.9268H4V20.9268Z" fill="#7C7C7C" mask="url(#path-3-inside-2_1781_32)"/>
</g>
<g filter="url(#filter3_d_1781_32)">
<mask id="path-5-inside-3_1781_32" fill="white">
<path d="M37.999 0V5.41016H37.998V13.0732H31.959V5.41016H23.4043V0H37.999Z"/>
</mask>
<path d="M37.999 0V5.41016H37.998V13.0732H31.959V5.41016H23.4043V0H37.999Z" fill="#BDACE6"/>
<path d="M37.999 0H38.999V-1H37.999V0ZM37.999 5.41016V6.41016H38.999V5.41016H37.999ZM37.998 5.41016V4.41016H36.998V5.41016H37.998ZM37.998 13.0732V14.0732H38.998V13.0732H37.998ZM31.959 13.0732H30.959V14.0732H31.959V13.0732ZM31.959 5.41016H32.959V4.41016H31.959V5.41016ZM23.4043 5.41016H22.4043V6.41016H23.4043V5.41016ZM23.4043 0V-1H22.4043V0H23.4043ZM37.999 0H36.999V5.41016H37.999H38.999V0H37.999ZM37.999 5.41016V4.41016H37.998V5.41016V6.41016H37.999V5.41016ZM37.998 5.41016H36.998V13.0732H37.998H38.998V5.41016H37.998ZM37.998 13.0732V12.0732H31.959V13.0732V14.0732H37.998V13.0732ZM31.959 13.0732H32.959V5.41016H31.959H30.959V13.0732H31.959ZM31.959 5.41016V4.41016H23.4043V5.41016V6.41016H31.959V5.41016ZM23.4043 5.41016H24.4043V0H23.4043H22.4043V5.41016H23.4043ZM23.4043 0V1H37.999V0V-1H23.4043V0Z" fill="#7C7C7C" mask="url(#path-5-inside-3_1781_32)"/>
</g>
</g>
<defs>
<filter id="filter0_d_1781_32" x="0" y="0" width="42" height="42" filterUnits="userSpaceOnUse" color-interpolation-filters="sRGB">
<feFlood flood-opacity="0" result="BackgroundImageFix"/>
<feColorMatrix in="SourceAlpha" type="matrix" values="0 0 0 0 0 0 0 0 0 0 0 0 0 0 0 0 0 0 127 0" result="hardAlpha"/>
<feOffset dy="4"/>
<feGaussianBlur stdDeviation="2"/>
<feComposite in2="hardAlpha" operator="out"/>
<feColorMatrix type="matrix" values="0 0 0 0 0 0 0 0 0 0 0 0 0 0 0 0 0 0 0.25 0"/>
<feBlend mode="normal" in2="BackgroundImageFix" result="effect1_dropShadow_1781_32"/>
<feBlend mode="normal" in="SourceGraphic" in2="effect1_dropShadow_1781_32" result="shape"/>
</filter>
<filter id="filter1_d_1781_32" x="8.84375" y="7.85938" width="24.2607" height="26.2969" filterUnits="userSpaceOnUse" color-interpolation-filters="sRGB">
<feFlood flood-opacity="0" result="BackgroundImageFix"/>
<feColorMatrix in="SourceAlpha" type="matrix" values="0 0 0 0 0 0 0 0 0 0 0 0 0 0 0 0 0 0 127 0" result="hardAlpha"/>
<feOffset dy="4"/>
<feGaussianBlur stdDeviation="2"/>
<feComposite in2="hardAlpha" operator="out"/>
<feColorMatrix type="matrix" values="0 0 0 0 0 0 0 0 0 0 0 0 0 0 0 0 0 0 0.25 0"/>
<feBlend mode="normal" in2="BackgroundImageFix" result="effect1_dropShadow_1781_32"/>
<feBlend mode="normal" in="SourceGraphic" in2="effect1_dropShadow_1781_32" result="shape"/>
</filter>
<filter id="filter2_d_1781_32" x="-0.000976562" y="20.9268" width="22.5947" height="21.0732" filterUnits="userSpaceOnUse" color-interpolation-filters="sRGB">
<feFlood flood-opacity="0" result="BackgroundImageFix"/>
<feColorMatrix in="SourceAlpha" type="matrix" values="0 0 0 0 0 0 0 0 0 0 0 0 0 0 0 0 0 0 127 0" result="hardAlpha"/>
<feOffset dy="4"/>
<feGaussianBlur stdDeviation="2"/>
<feComposite in2="hardAlpha" operator="out"/>
<feColorMatrix type="matrix" values="0 0 0 0 0 0 0 0 0 0 0 0 0 0 0 0 0 0 0.25 0"/>
<feBlend mode="normal" in2="BackgroundImageFix" result="effect1_dropShadow_1781_32"/>
<feBlend mode="normal" in="SourceGraphic" in2="effect1_dropShadow_1781_32" result="shape"/>
</filter>
<filter id="filter3_d_1781_32" x="19.4043" y="0" width="22.5947" height="21.0732" filterUnits="userSpaceOnUse" color-interpolation-filters="sRGB">
<feFlood flood-opacity="0" result="BackgroundImageFix"/>
<feColorMatrix in="SourceAlpha" type="matrix" values="0 0 0 0 0 0 0 0 0 0 0 0 0 0 0 0 0 0 127 0" result="hardAlpha"/>
<feOffset dy="4"/>
<feGaussianBlur stdDeviation="2"/>
<feComposite in2="hardAlpha" operator="out"/>
<feColorMatrix type="matrix" values="0 0 0 0 0 0 0 0 0 0 0 0 0 0 0 0 0 0 0.25 0"/>
<feBlend mode="normal" in2="BackgroundImageFix" result="effect1_dropShadow_1781_32"/>
<feBlend mode="normal" in="SourceGraphic" in2="effect1_dropShadow_1781_32" result="shape"/>
</filter>
<clipPath id="clip0_1781_32">
<rect width="34" height="34" fill="white" transform="translate(4)"/>
</clipPath>
</defs>
</svg>
