<svg width="35" height="39" viewBox="0 0 35 39" fill="none" xmlns="http://www.w3.org/2000/svg">
<rect x="14.9609" y="28.8447" width="4.84803" height="18.6851" transform="rotate(-180 14.9609 28.8447)" fill="white"/>
<rect x="10.1113" y="15.0078" width="4.84803" height="14.6451" transform="rotate(-90 10.1113 15.0078)" fill="white"/>
<rect x="16.7773" y="21.9766" width="4.84803" height="7.97906" transform="rotate(-90 16.7773 21.9766)" fill="white"/>
<rect width="4.84803" height="11.7161" transform="matrix(0 1 1 0 13.041 23.9966)" fill="white"/>
<rect width="4.84803" height="9.79707" transform="matrix(1 0 0 -1 19.9082 28.8447)" fill="white"/>
<rect x="14.9902" y="32.7812" width="6.20281" height="14.9901" transform="rotate(90 14.9902 32.7812)" fill="#BDACE6"/>
<rect x="6.20312" y="38.9839" width="6.20281" height="14.9901" transform="rotate(-180 6.20312 38.9839)" fill="#BDACE6"/>
<rect x="19.9316" y="6.20264" width="6.20281" height="14.9901" transform="rotate(-90 19.9316 6.20264)" fill="#BDACE6"/>
<rect x="28.7188" width="6.20281" height="14.9901" fill="#BDACE6"/>
</svg>
