<svg width="88" height="88" viewBox="0 0 88 88" fill="none" xmlns="http://www.w3.org/2000/svg">
<g filter="url(#filter0_d_1795_125)">
<rect x="4" width="80" height="80" rx="40" fill="#BDACE6"/>
</g>
<path d="M39.875 26.625H44.5V35.875H39.875C38.6484 35.875 37.472 35.3877 36.6046 34.5204C35.7373 33.653 35.25 32.4766 35.25 31.25C35.25 30.0234 35.7373 28.847 36.6046 27.9796C37.472 27.1123 38.6484 26.625 39.875 26.625Z" fill="#3C2C61"/>
<path d="M49.125 35.875H44.5V26.625H49.125C50.3516 26.625 51.528 27.1123 52.3954 27.9796C53.2627 28.847 53.75 30.0234 53.75 31.25C53.75 32.4766 53.2627 33.653 52.3954 34.5204C51.528 35.3877 50.3516 35.875 49.125 35.875Z" fill="#3C2C61"/>
<path d="M44.5 40.5C44.5 43.0543 46.5707 45.125 49.125 45.125C51.6793 45.125 53.75 43.0543 53.75 40.5C53.75 37.9457 51.6793 35.875 49.125 35.875C46.5707 35.875 44.5 37.9457 44.5 40.5Z" fill="#3C2C61"/>
<path d="M39.875 35.875H44.5V45.125H39.875C38.6484 45.125 37.472 44.6377 36.6046 43.7704C35.7373 42.903 35.25 41.7266 35.25 40.5C35.25 39.2734 35.7373 38.097 36.6046 37.2296C37.472 36.3623 38.6484 35.875 39.875 35.875Z" fill="#3C2C61"/>
<path d="M39.875 45.125H44.5V49.75C44.5 50.9766 44.0127 52.153 43.1454 53.0204C42.278 53.8877 41.1016 54.375 39.875 54.375C38.6484 54.375 37.472 53.8877 36.6046 53.0204C35.7373 52.153 35.25 50.9766 35.25 49.75C35.25 48.5234 35.7373 47.347 36.6046 46.4796C37.472 45.6123 38.6484 45.125 39.875 45.125Z" fill="#3C2C61"/>
<defs>
<filter id="filter0_d_1795_125" x="0.0324454" y="0" width="87.9351" height="87.9351" filterUnits="userSpaceOnUse" color-interpolation-filters="sRGB">
<feFlood flood-opacity="0" result="BackgroundImageFix"/>
<feColorMatrix in="SourceAlpha" type="matrix" values="0 0 0 0 0 0 0 0 0 0 0 0 0 0 0 0 0 0 127 0" result="hardAlpha"/>
<feOffset dy="3.96755"/>
<feGaussianBlur stdDeviation="1.98378"/>
<feComposite in2="hardAlpha" operator="out"/>
<feColorMatrix type="matrix" values="0 0 0 0 0 0 0 0 0 0 0 0 0 0 0 0 0 0 0.25 0"/>
<feBlend mode="normal" in2="BackgroundImageFix" result="effect1_dropShadow_1795_125"/>
<feBlend mode="normal" in="SourceGraphic" in2="effect1_dropShadow_1795_125" result="shape"/>
</filter>
</defs>
</svg>
