<svg width="261" height="221" viewBox="0 0 261 221" fill="none" xmlns="http://www.w3.org/2000/svg">
<g filter="url(#filter0_d_1797_62)">
<path d="M85.7021 0H25.6516C13.1415 0 3 10.1415 3 22.6516V192.034C3 204.544 13.1415 214.685 25.6516 214.685H235.201C247.711 214.685 257.852 204.544 257.852 192.034V51.4508C257.852 38.9407 247.711 28.7992 235.201 28.7992H168.53C153.498 28.7992 138.906 23.7255 127.116 14.3996C115.327 5.07369 100.734 0 85.7021 0Z" fill="#BDACE6"/>
<path d="M25.6514 2.07715H85.7021C100.267 2.07715 114.404 6.99364 125.827 16.0293C137.984 25.6454 153.03 30.8769 168.53 30.877H235.2C246.563 30.877 255.774 40.0885 255.774 51.4512V192.033C255.774 203.396 246.563 212.607 235.2 212.607H25.6514C14.2888 212.607 5.07715 203.396 5.07715 192.033V22.6514C5.07728 11.2889 14.2889 2.07727 25.6514 2.07715Z" stroke="#BDACE6" stroke-width="4.1552" stroke-linejoin="bevel"/>
</g>
<path d="M88.0881 107.128C87.1067 107.128 86.2427 106.936 85.4961 106.552C84.7601 106.168 84.1894 105.645 83.7841 104.984C83.3787 104.312 83.1761 103.549 83.1761 102.696C83.1761 101.832 83.3734 101.069 83.7681 100.408C84.1734 99.736 84.7227 99.2133 85.4161 98.84C86.1094 98.456 86.8934 98.264 87.7681 98.264C88.6107 98.264 89.3681 98.4453 90.0401 98.808C90.7227 99.16 91.2614 99.672 91.6561 100.344C92.0507 101.005 92.2481 101.8 92.2481 102.728C92.2481 102.824 92.2427 102.936 92.2321 103.064C92.2214 103.181 92.2107 103.293 92.2001 103.4H85.2081V101.944H90.8881L89.9281 102.376C89.9281 101.928 89.8374 101.539 89.6561 101.208C89.4747 100.877 89.2241 100.621 88.9041 100.44C88.5841 100.248 88.2107 100.152 87.7841 100.152C87.3574 100.152 86.9787 100.248 86.6481 100.44C86.3281 100.621 86.0774 100.883 85.8961 101.224C85.7147 101.555 85.6241 101.949 85.6241 102.408V102.792C85.6241 103.261 85.7254 103.677 85.9281 104.04C86.1414 104.392 86.4347 104.664 86.8081 104.856C87.1921 105.037 87.6401 105.128 88.1521 105.128C88.6107 105.128 89.0107 105.059 89.3521 104.92C89.7041 104.781 90.0241 104.573 90.3121 104.296L91.6401 105.736C91.2454 106.184 90.7494 106.531 90.1521 106.776C89.5547 107.011 88.8667 107.128 88.0881 107.128ZM104.934 98.264C105.616 98.264 106.219 98.4027 106.742 98.68C107.275 98.9467 107.691 99.3627 107.99 99.928C108.299 100.483 108.454 101.197 108.454 102.072V107H105.958V102.456C105.958 101.763 105.814 101.251 105.526 100.92C105.238 100.589 104.832 100.424 104.31 100.424C103.947 100.424 103.622 100.509 103.334 100.68C103.046 100.84 102.822 101.085 102.662 101.416C102.502 101.747 102.422 102.168 102.422 102.68V107H99.9258V102.456C99.9258 101.763 99.7818 101.251 99.4938 100.92C99.2165 100.589 98.8165 100.424 98.2938 100.424C97.9311 100.424 97.6058 100.509 97.3178 100.68C97.0298 100.84 96.8058 101.085 96.6458 101.416C96.4858 101.747 96.4058 102.168 96.4058 102.68V107H93.9098V98.392H96.2938V100.744L95.8458 100.056C96.1445 99.4693 96.5658 99.0267 97.1098 98.728C97.6645 98.4187 98.2938 98.264 98.9978 98.264C99.7871 98.264 100.475 98.4667 101.062 98.872C101.659 99.2667 102.054 99.8747 102.246 100.696L101.366 100.456C101.654 99.784 102.112 99.2507 102.742 98.856C103.382 98.4613 104.112 98.264 104.934 98.264ZM120.31 107.128C119.553 107.128 118.902 106.968 118.358 106.648C117.814 106.328 117.398 105.843 117.11 105.192C116.822 104.531 116.678 103.699 116.678 102.696C116.678 101.683 116.828 100.851 117.126 100.2C117.436 99.5493 117.862 99.064 118.406 98.744C118.95 98.424 119.585 98.264 120.31 98.264C121.121 98.264 121.846 98.4453 122.486 98.808C123.137 99.1707 123.649 99.6827 124.022 100.344C124.406 101.005 124.598 101.789 124.598 102.696C124.598 103.592 124.406 104.371 124.022 105.032C123.649 105.693 123.137 106.211 122.486 106.584C121.846 106.947 121.121 107.128 120.31 107.128ZM115.222 107V95.128H117.718V100.136L117.558 102.68L117.606 105.24V107H115.222ZM119.878 105.08C120.294 105.08 120.662 104.984 120.982 104.792C121.313 104.6 121.574 104.328 121.766 103.976C121.969 103.613 122.07 103.187 122.07 102.696C122.07 102.195 121.969 101.768 121.766 101.416C121.574 101.064 121.313 100.792 120.982 100.6C120.662 100.408 120.294 100.312 119.878 100.312C119.462 100.312 119.089 100.408 118.758 100.6C118.428 100.792 118.166 101.064 117.974 101.416C117.782 101.768 117.686 102.195 117.686 102.696C117.686 103.187 117.782 103.613 117.974 103.976C118.166 104.328 118.428 104.6 118.758 104.792C119.089 104.984 119.462 105.08 119.878 105.08ZM126.269 107V98.392H128.653V100.824L128.317 100.12C128.573 99.512 128.984 99.0533 129.549 98.744C130.115 98.424 130.803 98.264 131.613 98.264V100.568C131.507 100.557 131.411 100.552 131.325 100.552C131.24 100.541 131.149 100.536 131.053 100.536C130.371 100.536 129.816 100.733 129.389 101.128C128.973 101.512 128.765 102.115 128.765 102.936V107H126.269ZM137.307 107.128C136.325 107.128 135.461 106.936 134.715 106.552C133.979 106.168 133.408 105.645 133.003 104.984C132.597 104.312 132.395 103.549 132.395 102.696C132.395 101.832 132.592 101.069 132.987 100.408C133.392 99.736 133.941 99.2133 134.635 98.84C135.328 98.456 136.112 98.264 136.987 98.264C137.829 98.264 138.587 98.4453 139.259 98.808C139.941 99.16 140.48 99.672 140.875 100.344C141.269 101.005 141.467 101.8 141.467 102.728C141.467 102.824 141.461 102.936 141.451 103.064C141.44 103.181 141.429 103.293 141.419 103.4H134.427V101.944H140.107L139.147 102.376C139.147 101.928 139.056 101.539 138.875 101.208C138.693 100.877 138.443 100.621 138.123 100.44C137.803 100.248 137.429 100.152 137.003 100.152C136.576 100.152 136.197 100.248 135.867 100.44C135.547 100.621 135.296 100.883 135.115 101.224C134.933 101.555 134.843 101.949 134.843 102.408V102.792C134.843 103.261 134.944 103.677 135.147 104.04C135.36 104.392 135.653 104.664 136.027 104.856C136.411 105.037 136.859 105.128 137.371 105.128C137.829 105.128 138.229 105.059 138.571 104.92C138.923 104.781 139.243 104.573 139.531 104.296L140.859 105.736C140.464 106.184 139.968 106.531 139.371 106.776C138.773 107.011 138.085 107.128 137.307 107.128ZM145.308 107L141.692 98.392H144.268L147.276 105.8H145.996L149.116 98.392H151.516L147.884 107H145.308ZM156.572 107.128C155.591 107.128 154.727 106.936 153.98 106.552C153.244 106.168 152.674 105.645 152.268 104.984C151.863 104.312 151.66 103.549 151.66 102.696C151.66 101.832 151.858 101.069 152.252 100.408C152.658 99.736 153.207 99.2133 153.9 98.84C154.594 98.456 155.378 98.264 156.252 98.264C157.095 98.264 157.852 98.4453 158.524 98.808C159.207 99.16 159.746 99.672 160.14 100.344C160.535 101.005 160.732 101.8 160.732 102.728C160.732 102.824 160.727 102.936 160.716 103.064C160.706 103.181 160.695 103.293 160.684 103.4H153.692V101.944H159.372L158.412 102.376C158.412 101.928 158.322 101.539 158.14 101.208C157.959 100.877 157.708 100.621 157.388 100.44C157.068 100.248 156.695 100.152 156.268 100.152C155.842 100.152 155.463 100.248 155.132 100.44C154.812 100.621 154.562 100.883 154.38 101.224C154.199 101.555 154.108 101.949 154.108 102.408V102.792C154.108 103.261 154.21 103.677 154.412 104.04C154.626 104.392 154.919 104.664 155.292 104.856C155.676 105.037 156.124 105.128 156.636 105.128C157.095 105.128 157.495 105.059 157.836 104.92C158.188 104.781 158.508 104.573 158.796 104.296L160.124 105.736C159.73 106.184 159.234 106.531 158.636 106.776C158.039 107.011 157.351 107.128 156.572 107.128ZM163.338 107.128C162.912 107.128 162.544 106.984 162.234 106.696C161.936 106.397 161.786 106.019 161.786 105.56C161.786 105.101 161.936 104.733 162.234 104.456C162.544 104.168 162.912 104.024 163.338 104.024C163.776 104.024 164.144 104.168 164.442 104.456C164.741 104.733 164.89 105.101 164.89 105.56C164.89 106.019 164.741 106.397 164.442 106.696C164.144 106.984 163.776 107.128 163.338 107.128ZM167.526 107.128C167.099 107.128 166.731 106.984 166.422 106.696C166.123 106.397 165.974 106.019 165.974 105.56C165.974 105.101 166.123 104.733 166.422 104.456C166.731 104.168 167.099 104.024 167.526 104.024C167.963 104.024 168.331 104.168 168.63 104.456C168.928 104.733 169.078 105.101 169.078 105.56C169.078 106.019 168.928 106.397 168.63 106.696C168.331 106.984 167.963 107.128 167.526 107.128ZM171.713 107.128C171.287 107.128 170.919 106.984 170.609 106.696C170.311 106.397 170.161 106.019 170.161 105.56C170.161 105.101 170.311 104.733 170.609 104.456C170.919 104.168 171.287 104.024 171.713 104.024C172.151 104.024 172.519 104.168 172.817 104.456C173.116 104.733 173.265 105.101 173.265 105.56C173.265 106.019 173.116 106.397 172.817 106.696C172.519 106.984 172.151 107.128 171.713 107.128ZM28.909 127.128C28.1943 127.128 27.5543 126.989 26.989 126.712C26.4343 126.435 26.0023 126.013 25.693 125.448C25.3837 124.872 25.229 124.141 25.229 123.256V118.392H27.725V122.888C27.725 123.603 27.8743 124.131 28.173 124.472C28.4823 124.803 28.9143 124.968 29.469 124.968C29.853 124.968 30.1943 124.888 30.493 124.728C30.7917 124.557 31.0263 124.301 31.197 123.96C31.3677 123.608 31.453 123.171 31.453 122.648V118.392H33.949V127H31.581V124.632L32.013 125.32C31.725 125.917 31.2983 126.371 30.733 126.68C30.1783 126.979 29.5703 127.128 28.909 127.128ZM47.2854 118.264C47.968 118.264 48.5707 118.403 49.0934 118.68C49.6267 118.947 50.0427 119.363 50.3414 119.928C50.6507 120.483 50.8054 121.197 50.8054 122.072V127H48.3094V122.456C48.3094 121.763 48.1654 121.251 47.8774 120.92C47.5894 120.589 47.184 120.424 46.6614 120.424C46.2987 120.424 45.9734 120.509 45.6854 120.68C45.3974 120.84 45.1734 121.085 45.0134 121.416C44.8534 121.747 44.7734 122.168 44.7734 122.68V127H42.2774V122.456C42.2774 121.763 42.1334 121.251 41.8454 120.92C41.568 120.589 41.168 120.424 40.6454 120.424C40.2827 120.424 39.9574 120.509 39.6694 120.68C39.3814 120.84 39.1574 121.085 38.9974 121.416C38.8374 121.747 38.7574 122.168 38.7574 122.68V127H36.2614V118.392H38.6454V120.744L38.1974 120.056C38.496 119.469 38.9174 119.027 39.4614 118.728C40.016 118.419 40.6454 118.264 41.3494 118.264C42.1387 118.264 42.8267 118.467 43.4134 118.872C44.0107 119.267 44.4054 119.875 44.5974 120.696L43.7174 120.456C44.0054 119.784 44.464 119.251 45.0934 118.856C45.7334 118.461 46.464 118.264 47.2854 118.264ZM62.8059 118.264C63.4885 118.264 64.0965 118.403 64.6299 118.68C65.1739 118.947 65.6005 119.363 65.9099 119.928C66.2192 120.483 66.3739 121.197 66.3739 122.072V127H63.8779V122.456C63.8779 121.763 63.7232 121.251 63.4139 120.92C63.1152 120.589 62.6885 120.424 62.1339 120.424C61.7392 120.424 61.3819 120.509 61.0619 120.68C60.7525 120.84 60.5072 121.091 60.3259 121.432C60.1552 121.773 60.0699 122.211 60.0699 122.744V127H57.5739V118.392H59.9579V120.776L59.5099 120.056C59.8192 119.48 60.2619 119.037 60.8379 118.728C61.4139 118.419 62.0699 118.264 62.8059 118.264ZM72.7949 127.128C71.8775 127.128 71.0615 126.936 70.3469 126.552C69.6429 126.168 69.0829 125.645 68.6669 124.984C68.2615 124.312 68.0589 123.549 68.0589 122.696C68.0589 121.832 68.2615 121.069 68.6669 120.408C69.0829 119.736 69.6429 119.213 70.3469 118.84C71.0615 118.456 71.8775 118.264 72.7949 118.264C73.7015 118.264 74.5122 118.456 75.2269 118.84C75.9415 119.213 76.5015 119.731 76.9069 120.392C77.3122 121.053 77.5149 121.821 77.5149 122.696C77.5149 123.549 77.3122 124.312 76.9069 124.984C76.5015 125.645 75.9415 126.168 75.2269 126.552C74.5122 126.936 73.7015 127.128 72.7949 127.128ZM72.7949 125.08C73.2109 125.08 73.5842 124.984 73.9149 124.792C74.2455 124.6 74.5069 124.328 74.6989 123.976C74.8909 123.613 74.9869 123.187 74.9869 122.696C74.9869 122.195 74.8909 121.768 74.6989 121.416C74.5069 121.064 74.2455 120.792 73.9149 120.6C73.5842 120.408 73.2109 120.312 72.7949 120.312C72.3789 120.312 72.0055 120.408 71.6749 120.6C71.3442 120.792 71.0775 121.064 70.8749 121.416C70.6829 121.768 70.5869 122.195 70.5869 122.696C70.5869 123.187 70.6829 123.613 70.8749 123.976C71.0775 124.328 71.3442 124.6 71.6749 124.792C72.0055 124.984 72.3789 125.08 72.7949 125.08ZM81.2849 127L77.6689 118.392H80.2449L83.2529 125.8H81.9729L85.0929 118.392H87.4929L83.8609 127H81.2849ZM92.373 127.128C91.4557 127.128 90.6397 126.936 89.925 126.552C89.221 126.168 88.661 125.645 88.245 124.984C87.8397 124.312 87.637 123.549 87.637 122.696C87.637 121.832 87.8397 121.069 88.245 120.408C88.661 119.736 89.221 119.213 89.925 118.84C90.6397 118.456 91.4557 118.264 92.373 118.264C93.2797 118.264 94.0903 118.456 94.805 118.84C95.5197 119.213 96.0797 119.731 96.485 120.392C96.8903 121.053 97.093 121.821 97.093 122.696C97.093 123.549 96.8903 124.312 96.485 124.984C96.0797 125.645 95.5197 126.168 94.805 126.552C94.0903 126.936 93.2797 127.128 92.373 127.128ZM92.373 125.08C92.789 125.08 93.1623 124.984 93.493 124.792C93.8237 124.6 94.085 124.328 94.277 123.976C94.469 123.613 94.565 123.187 94.565 122.696C94.565 122.195 94.469 121.768 94.277 121.416C94.085 121.064 93.8237 120.792 93.493 120.6C93.1623 120.408 92.789 120.312 92.373 120.312C91.957 120.312 91.5837 120.408 91.253 120.6C90.9223 120.792 90.6557 121.064 90.453 121.416C90.261 121.768 90.165 122.195 90.165 122.696C90.165 123.187 90.261 123.613 90.453 123.976C90.6557 124.328 90.9223 124.6 91.253 124.792C91.5837 124.984 91.957 125.08 92.373 125.08ZM108.381 127.128C107.655 127.128 107.021 126.968 106.477 126.648C105.933 126.328 105.506 125.843 105.197 125.192C104.898 124.531 104.749 123.699 104.749 122.696C104.749 121.683 104.893 120.851 105.181 120.2C105.469 119.549 105.885 119.064 106.429 118.744C106.973 118.424 107.623 118.264 108.381 118.264C109.191 118.264 109.917 118.451 110.557 118.824C111.207 119.187 111.719 119.699 112.093 120.36C112.477 121.021 112.669 121.8 112.669 122.696C112.669 123.603 112.477 124.387 112.093 125.048C111.719 125.709 111.207 126.221 110.557 126.584C109.917 126.947 109.191 127.128 108.381 127.128ZM103.293 130.104V118.392H105.677V120.152L105.629 122.712L105.789 125.256V130.104H103.293ZM107.949 125.08C108.365 125.08 108.733 124.984 109.053 124.792C109.383 124.6 109.645 124.328 109.837 123.976C110.039 123.613 110.141 123.187 110.141 122.696C110.141 122.195 110.039 121.768 109.837 121.416C109.645 121.064 109.383 120.792 109.053 120.6C108.733 120.408 108.365 120.312 107.949 120.312C107.533 120.312 107.159 120.408 106.829 120.6C106.498 120.792 106.237 121.064 106.045 121.416C105.853 121.768 105.757 122.195 105.757 122.696C105.757 123.187 105.853 123.613 106.045 123.976C106.237 124.328 106.498 124.6 106.829 124.792C107.159 124.984 107.533 125.08 107.949 125.08ZM114.34 127V118.392H116.724V120.824L116.388 120.12C116.644 119.512 117.054 119.053 117.62 118.744C118.185 118.424 118.873 118.264 119.684 118.264V120.568C119.577 120.557 119.481 120.552 119.396 120.552C119.31 120.541 119.22 120.536 119.124 120.536C118.441 120.536 117.886 120.733 117.46 121.128C117.044 121.512 116.836 122.115 116.836 122.936V127H114.34ZM125.201 127.128C124.284 127.128 123.468 126.936 122.753 126.552C122.049 126.168 121.489 125.645 121.073 124.984C120.668 124.312 120.465 123.549 120.465 122.696C120.465 121.832 120.668 121.069 121.073 120.408C121.489 119.736 122.049 119.213 122.753 118.84C123.468 118.456 124.284 118.264 125.201 118.264C126.108 118.264 126.918 118.456 127.633 118.84C128.348 119.213 128.908 119.731 129.313 120.392C129.718 121.053 129.921 121.821 129.921 122.696C129.921 123.549 129.718 124.312 129.313 124.984C128.908 125.645 128.348 126.168 127.633 126.552C126.918 126.936 126.108 127.128 125.201 127.128ZM125.201 125.08C125.617 125.08 125.99 124.984 126.321 124.792C126.652 124.6 126.913 124.328 127.105 123.976C127.297 123.613 127.393 123.187 127.393 122.696C127.393 122.195 127.297 121.768 127.105 121.416C126.913 121.064 126.652 120.792 126.321 120.6C125.99 120.408 125.617 120.312 125.201 120.312C124.785 120.312 124.412 120.408 124.081 120.6C123.75 120.792 123.484 121.064 123.281 121.416C123.089 121.768 122.993 122.195 122.993 122.696C122.993 123.187 123.089 123.613 123.281 123.976C123.484 124.328 123.75 124.6 124.081 124.792C124.412 124.984 124.785 125.08 125.201 125.08ZM130.95 130.232C130.566 130.232 130.197 130.189 129.845 130.104C129.493 130.029 129.195 129.912 128.949 129.752L129.621 127.944C129.909 128.147 130.262 128.248 130.678 128.248C130.987 128.248 131.232 128.141 131.414 127.928C131.606 127.725 131.702 127.416 131.702 127V118.392H134.198V126.984C134.198 127.976 133.915 128.765 133.35 129.352C132.784 129.939 131.984 130.232 130.95 130.232ZM132.95 117.192C132.491 117.192 132.118 117.059 131.83 116.792C131.542 116.525 131.398 116.195 131.398 115.8C131.398 115.405 131.542 115.075 131.83 114.808C132.118 114.541 132.491 114.408 132.95 114.408C133.408 114.408 133.782 114.536 134.07 114.792C134.358 115.037 134.502 115.357 134.502 115.752C134.502 116.168 134.358 116.515 134.07 116.792C133.792 117.059 133.419 117.192 132.95 117.192ZM140.768 127.128C139.786 127.128 138.922 126.936 138.176 126.552C137.44 126.168 136.869 125.645 136.464 124.984C136.058 124.312 135.856 123.549 135.856 122.696C135.856 121.832 136.053 121.069 136.448 120.408C136.853 119.736 137.402 119.213 138.096 118.84C138.789 118.456 139.573 118.264 140.448 118.264C141.29 118.264 142.048 118.445 142.72 118.808C143.402 119.16 143.941 119.672 144.336 120.344C144.73 121.005 144.928 121.8 144.928 122.728C144.928 122.824 144.922 122.936 144.912 123.064C144.901 123.181 144.89 123.293 144.88 123.4H137.888V121.944H143.568L142.608 122.376C142.608 121.928 142.517 121.539 142.336 121.208C142.154 120.877 141.904 120.621 141.584 120.44C141.264 120.248 140.89 120.152 140.464 120.152C140.037 120.152 139.658 120.248 139.328 120.44C139.008 120.621 138.757 120.883 138.576 121.224C138.394 121.555 138.304 121.949 138.304 122.408V122.792C138.304 123.261 138.405 123.677 138.608 124.04C138.821 124.392 139.114 124.664 139.488 124.856C139.872 125.037 140.32 125.128 140.832 125.128C141.29 125.128 141.69 125.059 142.032 124.92C142.384 124.781 142.704 124.573 142.992 124.296L144.32 125.736C143.925 126.184 143.429 126.531 142.832 126.776C142.234 127.011 141.546 127.128 140.768 127.128ZM150.11 127.128C149.096 127.128 148.307 126.872 147.742 126.36C147.176 125.837 146.894 125.064 146.894 124.04V116.488H149.39V124.008C149.39 124.371 149.486 124.653 149.678 124.856C149.87 125.048 150.131 125.144 150.462 125.144C150.856 125.144 151.192 125.037 151.47 124.824L152.142 126.584C151.886 126.765 151.576 126.904 151.214 127C150.862 127.085 150.494 127.128 150.11 127.128ZM145.566 120.504V118.584H151.534V120.504H145.566ZM157.373 127.128C156.456 127.128 155.64 126.936 154.925 126.552C154.221 126.168 153.661 125.645 153.245 124.984C152.84 124.312 152.637 123.549 152.637 122.696C152.637 121.832 152.84 121.069 153.245 120.408C153.661 119.736 154.221 119.213 154.925 118.84C155.64 118.456 156.456 118.264 157.373 118.264C158.28 118.264 159.09 118.456 159.805 118.84C160.52 119.213 161.08 119.731 161.485 120.392C161.89 121.053 162.093 121.821 162.093 122.696C162.093 123.549 161.89 124.312 161.485 124.984C161.08 125.645 160.52 126.168 159.805 126.552C159.09 126.936 158.28 127.128 157.373 127.128ZM157.373 125.08C157.789 125.08 158.162 124.984 158.493 124.792C158.824 124.6 159.085 124.328 159.277 123.976C159.469 123.613 159.565 123.187 159.565 122.696C159.565 122.195 159.469 121.768 159.277 121.416C159.085 121.064 158.824 120.792 158.493 120.6C158.162 120.408 157.789 120.312 157.373 120.312C156.957 120.312 156.584 120.408 156.253 120.6C155.922 120.792 155.656 121.064 155.453 121.416C155.261 121.768 155.165 122.195 155.165 122.696C155.165 123.187 155.261 123.613 155.453 123.976C155.656 124.328 155.922 124.6 156.253 124.792C156.584 124.984 156.957 125.08 157.373 125.08ZM173.381 127.128C172.655 127.128 172.021 126.968 171.477 126.648C170.933 126.328 170.506 125.843 170.197 125.192C169.898 124.531 169.749 123.699 169.749 122.696C169.749 121.683 169.893 120.851 170.181 120.2C170.469 119.549 170.885 119.064 171.429 118.744C171.973 118.424 172.623 118.264 173.381 118.264C174.191 118.264 174.917 118.451 175.557 118.824C176.207 119.187 176.719 119.699 177.093 120.36C177.477 121.021 177.669 121.8 177.669 122.696C177.669 123.603 177.477 124.387 177.093 125.048C176.719 125.709 176.207 126.221 175.557 126.584C174.917 126.947 174.191 127.128 173.381 127.128ZM168.293 130.104V118.392H170.677V120.152L170.629 122.712L170.789 125.256V130.104H168.293ZM172.949 125.08C173.365 125.08 173.733 124.984 174.053 124.792C174.383 124.6 174.645 124.328 174.837 123.976C175.039 123.613 175.141 123.187 175.141 122.696C175.141 122.195 175.039 121.768 174.837 121.416C174.645 121.064 174.383 120.792 174.053 120.6C173.733 120.408 173.365 120.312 172.949 120.312C172.533 120.312 172.159 120.408 171.829 120.6C171.498 120.792 171.237 121.064 171.045 121.416C170.853 121.768 170.757 122.195 170.757 122.696C170.757 123.187 170.853 123.613 171.045 123.976C171.237 124.328 171.498 124.6 171.829 124.792C172.159 124.984 172.533 125.08 172.949 125.08ZM183.436 127.128C182.518 127.128 181.702 126.936 180.988 126.552C180.284 126.168 179.724 125.645 179.308 124.984C178.902 124.312 178.7 123.549 178.7 122.696C178.7 121.832 178.902 121.069 179.308 120.408C179.724 119.736 180.284 119.213 180.988 118.84C181.702 118.456 182.518 118.264 183.436 118.264C184.342 118.264 185.153 118.456 185.868 118.84C186.582 119.213 187.142 119.731 187.548 120.392C187.953 121.053 188.156 121.821 188.156 122.696C188.156 123.549 187.953 124.312 187.548 124.984C187.142 125.645 186.582 126.168 185.868 126.552C185.153 126.936 184.342 127.128 183.436 127.128ZM183.436 125.08C183.852 125.08 184.225 124.984 184.556 124.792C184.886 124.6 185.148 124.328 185.34 123.976C185.532 123.613 185.628 123.187 185.628 122.696C185.628 122.195 185.532 121.768 185.34 121.416C185.148 121.064 184.886 120.792 184.556 120.6C184.225 120.408 183.852 120.312 183.436 120.312C183.02 120.312 182.646 120.408 182.316 120.6C181.985 120.792 181.718 121.064 181.516 121.416C181.324 121.768 181.228 122.195 181.228 122.696C181.228 123.187 181.324 123.613 181.516 123.976C181.718 124.328 181.985 124.6 182.316 124.792C182.646 124.984 183.02 125.08 183.436 125.08ZM189.824 127V118.392H192.208V120.824L191.872 120.12C192.128 119.512 192.539 119.053 193.104 118.744C193.669 118.424 194.357 118.264 195.168 118.264V120.568C195.061 120.557 194.965 120.552 194.88 120.552C194.795 120.541 194.704 120.536 194.608 120.536C193.925 120.536 193.371 120.733 192.944 121.128C192.528 121.512 192.32 122.115 192.32 122.936V127H189.824ZM206.526 127V125.32L206.366 124.952V121.944C206.366 121.411 206.2 120.995 205.87 120.696C205.55 120.397 205.054 120.248 204.382 120.248C203.923 120.248 203.47 120.323 203.022 120.472C202.584 120.611 202.211 120.803 201.902 121.048L201.006 119.304C201.475 118.973 202.04 118.717 202.702 118.536C203.363 118.355 204.035 118.264 204.718 118.264C206.03 118.264 207.048 118.573 207.774 119.192C208.499 119.811 208.862 120.776 208.862 122.088V127H206.526ZM203.902 127.128C203.23 127.128 202.654 127.016 202.174 126.792C201.694 126.557 201.326 126.243 201.07 125.848C200.814 125.453 200.686 125.011 200.686 124.52C200.686 124.008 200.808 123.56 201.054 123.176C201.31 122.792 201.71 122.493 202.254 122.28C202.798 122.056 203.507 121.944 204.382 121.944H206.67V123.4H204.654C204.067 123.4 203.662 123.496 203.438 123.688C203.224 123.88 203.118 124.12 203.118 124.408C203.118 124.728 203.24 124.984 203.486 125.176C203.742 125.357 204.088 125.448 204.526 125.448C204.942 125.448 205.315 125.352 205.646 125.16C205.976 124.957 206.216 124.664 206.366 124.28L206.75 125.432C206.568 125.987 206.238 126.408 205.758 126.696C205.278 126.984 204.659 127.128 203.902 127.128ZM214.847 127.128C214.037 127.128 213.306 126.947 212.655 126.584C212.005 126.221 211.487 125.709 211.103 125.048C210.73 124.387 210.543 123.603 210.543 122.696C210.543 121.8 210.73 121.021 211.103 120.36C211.487 119.699 212.005 119.187 212.655 118.824C213.306 118.451 214.037 118.264 214.847 118.264C215.605 118.264 216.25 118.424 216.783 118.744C217.327 119.064 217.743 119.549 218.031 120.2C218.319 120.851 218.463 121.683 218.463 122.696C218.463 123.699 218.314 124.531 218.015 125.192C217.717 125.843 217.295 126.328 216.751 126.648C216.207 126.968 215.573 127.128 214.847 127.128ZM215.279 125.08C215.685 125.08 216.053 124.984 216.383 124.792C216.714 124.6 216.975 124.328 217.167 123.976C217.37 123.613 217.471 123.187 217.471 122.696C217.471 122.195 217.37 121.768 217.167 121.416C216.975 121.064 216.714 120.792 216.383 120.6C216.053 120.408 215.685 120.312 215.279 120.312C214.863 120.312 214.49 120.408 214.159 120.6C213.829 120.792 213.562 121.064 213.359 121.416C213.167 121.768 213.071 122.195 213.071 122.696C213.071 123.187 213.167 123.613 213.359 123.976C213.562 124.328 213.829 124.6 214.159 124.792C214.49 124.984 214.863 125.08 215.279 125.08ZM217.423 130.104V125.256L217.583 122.712L217.535 120.152V118.392H219.919V130.104H217.423ZM225.862 127.128C225.147 127.128 224.507 126.989 223.942 126.712C223.387 126.435 222.955 126.013 222.646 125.448C222.337 124.872 222.182 124.141 222.182 123.256V118.392H224.678V122.888C224.678 123.603 224.827 124.131 225.126 124.472C225.435 124.803 225.867 124.968 226.422 124.968C226.806 124.968 227.147 124.888 227.446 124.728C227.745 124.557 227.979 124.301 228.15 123.96C228.321 123.608 228.406 123.171 228.406 122.648V118.392H230.902V127H228.534V124.632L228.966 125.32C228.678 125.917 228.251 126.371 227.686 126.68C227.131 126.979 226.523 127.128 225.862 127.128ZM233.215 127V118.392H235.711V127H233.215ZM234.463 117.192C234.004 117.192 233.631 117.059 233.343 116.792C233.055 116.525 232.911 116.195 232.911 115.8C232.911 115.405 233.055 115.075 233.343 114.808C233.631 114.541 234.004 114.408 234.463 114.408C234.921 114.408 235.295 114.536 235.583 114.792C235.871 115.037 236.015 115.357 236.015 115.752C236.015 116.168 235.871 116.515 235.583 116.792C235.305 117.059 234.932 117.192 234.463 117.192Z" fill="#3C2C61"/>
<defs>
<filter id="filter0_d_1797_62" x="0.229868" y="0" width="260.393" height="220.225" filterUnits="userSpaceOnUse" color-interpolation-filters="sRGB">
<feFlood flood-opacity="0" result="BackgroundImageFix"/>
<feColorMatrix in="SourceAlpha" type="matrix" values="0 0 0 0 0 0 0 0 0 0 0 0 0 0 0 0 0 0 127 0" result="hardAlpha"/>
<feOffset dy="2.77013"/>
<feGaussianBlur stdDeviation="1.38507"/>
<feComposite in2="hardAlpha" operator="out"/>
<feColorMatrix type="matrix" values="0 0 0 0 0 0 0 0 0 0 0 0 0 0 0 0 0 0 0.35 0"/>
<feBlend mode="normal" in2="BackgroundImageFix" result="effect1_dropShadow_1797_62"/>
<feBlend mode="normal" in="SourceGraphic" in2="effect1_dropShadow_1797_62" result="shape"/>
</filter>
</defs>
</svg>
