<svg width="261" height="221" viewBox="0 0 261 221" fill="none" xmlns="http://www.w3.org/2000/svg">
<g filter="url(#filter0_d_1797_61)">
<path d="M85.7021 0H25.6516C13.1415 0 3 10.1415 3 22.6516V192.034C3 204.544 13.1415 214.685 25.6516 214.685H235.201C247.711 214.685 257.852 204.544 257.852 192.034V51.4508C257.852 38.9407 247.711 28.7992 235.201 28.7992H168.53C153.498 28.7992 138.906 23.7255 127.116 14.3996C115.327 5.07369 100.734 0 85.7021 0Z" fill="#BDACE6"/>
<path d="M25.6514 2.07715H85.7021C100.267 2.07715 114.404 6.99364 125.827 16.0293C137.984 25.6454 153.03 30.8769 168.53 30.877H235.2C246.563 30.877 255.774 40.0885 255.774 51.4512V192.033C255.774 203.396 246.563 212.607 235.2 212.607H25.6514C14.2888 212.607 5.07715 203.396 5.07715 192.033V22.6514C5.07728 11.2889 14.2889 2.07727 25.6514 2.07715Z" stroke="#BDACE6" stroke-width="4.1552" stroke-linejoin="bevel"/>
</g>
<circle cx="125.146" cy="123.75" r="43.4967" fill="#BDACE6" stroke="#3C2C61" stroke-width="3.2982"/>
<path d="M119.357 80.9199C103.633 96.1347 81.6201 134.568 119.357 166.581" stroke="#3C2C61" stroke-width="3.2982"/>
<path d="M133.251 80.9199C148.975 96.1347 170.988 134.568 133.251 166.581" stroke="#3C2C61" stroke-width="3.2982"/>
<path d="M92.2578 95.3721H157.397" stroke="#3C2C61" stroke-width="3.2982"/>
<path d="M91.6094 152.126L159.973 150.837" stroke="#3C2C61" stroke-width="3.2982"/>
<path d="M81.6104 122.459H167.71" stroke="#3C2C61" stroke-width="3.2982"/>
<rect x="111.601" y="106.821" width="69.1351" height="31.8746" rx="15.9373" fill="#3C2C61"/>
<path d="M125.019 125.813L121.515 116.098H124.17L127.077 124.459H125.813L128.847 116.098H131.231L134.174 124.459H132.91L135.908 116.098H138.4L134.879 125.813H132.152L129.569 118.644H130.4L127.728 125.813H125.019ZM141.684 125.813L138.181 116.098H140.835L143.743 124.459H142.478L145.512 116.098H147.896L150.839 124.459H149.575L152.573 116.098H155.065L151.544 125.813H148.817L146.235 118.644H147.065L144.393 125.813H141.684ZM158.349 125.813L154.846 116.098H157.5L160.408 124.459H159.144L162.177 116.098H164.561L167.505 124.459H166.241L169.238 116.098H171.73L168.209 125.813H165.482L162.9 118.644H163.73L161.058 125.813H158.349Z" fill="#BDACE6"/>
<ellipse cx="146.274" cy="61.6813" rx="13.7833" ry="13.901" fill="#3C2C61"/>
<path d="M144.438 45H148.114L149.033 47.7802V61.6812H143.52V47.7802L144.438 45Z" fill="#3C2C61"/>
<path d="M144.438 78.3633H148.114L149.033 75.5831V61.6821H143.52V75.5831L144.438 78.3633Z" fill="#3C2C61"/>
<path d="M136.412 48.1626L139.595 46.3091L141.769 48.2535L148.661 60.2921L143.886 63.0723L136.995 51.0337L136.412 48.1626Z" fill="#3C2C61"/>
<path d="M152.953 77.0547L156.136 75.2012L155.554 72.3301L148.662 60.2915L143.887 63.0717L150.779 75.1103L152.953 77.0547Z" fill="#3C2C61"/>
<path d="M131.034 54.9455L132.871 51.7352L135.718 52.3227L147.655 59.2732L144.898 64.0887L132.962 57.1381L131.034 54.9455Z" fill="#3C2C61"/>
<path d="M159.682 71.6271L161.52 68.4168L159.592 66.2241L147.655 59.2736L144.899 64.0891L156.835 71.0396L159.682 71.6271Z" fill="#3C2C61"/>
<path d="M161.516 54.9455L159.678 51.7352L156.832 52.3227L144.895 59.2732L147.652 64.0887L159.588 57.1381L161.516 54.9455Z" fill="#3C2C61"/>
<path d="M132.868 71.6271L131.03 68.4168L132.958 66.2241L144.895 59.2736L147.651 64.0891L135.714 71.0396L132.868 71.6271Z" fill="#3C2C61"/>
<path d="M162.814 63.5347V59.8278L160.058 58.901L146.275 58.901V64.4614L160.058 64.4614L162.814 63.5347Z" fill="#3C2C61"/>
<path d="M129.734 63.5347V59.8278L132.491 58.901L146.274 58.901V64.4614L132.491 64.4614L129.734 63.5347Z" fill="#3C2C61"/>
<path d="M156.134 48.1626L152.951 46.3091L150.777 48.2535L143.885 60.2921L148.66 63.0723L155.551 51.0337L156.134 48.1626Z" fill="#3C2C61"/>
<path d="M139.593 77.0547L136.41 75.2012L136.992 72.3301L143.884 60.2915L148.659 63.0717L141.767 75.1103L139.593 77.0547Z" fill="#3C2C61"/>
<ellipse cx="146.275" cy="61.6817" rx="7.08848" ry="7.14903" fill="#BDACE6"/>
<ellipse cx="168.099" cy="82.1284" rx="10.686" ry="10.7773" fill="#3C2C61"/>
<path d="M166.675 69.1948H169.525L170.237 71.3503V82.1276H165.963V71.3503L166.675 69.1948Z" fill="#3C2C61"/>
<path d="M166.675 95.061H169.525L170.237 92.9056V82.1283H165.963V92.9056L166.675 95.061Z" fill="#3C2C61"/>
<path d="M160.45 71.6466L162.918 70.2096L164.603 71.7171L169.946 81.0505L166.245 83.206L160.902 73.8725L160.45 71.6466Z" fill="#3C2C61"/>
<path d="M173.272 94.0475L175.74 92.6105L175.288 90.3846L169.945 81.0512L166.244 83.2066L171.587 92.5401L173.272 94.0475Z" fill="#3C2C61"/>
<path d="M156.281 76.9046L157.706 74.4157L159.913 74.8712L169.167 80.2599L167.03 83.9932L157.776 78.6046L156.281 76.9046Z" fill="#3C2C61"/>
<path d="M178.491 89.8387L179.916 87.3498L178.421 85.6498L169.167 80.2612L167.03 83.9946L176.284 89.3832L178.491 89.8387Z" fill="#3C2C61"/>
<path d="M179.916 76.9056L178.491 74.4167L176.284 74.8722L167.03 80.2608L169.167 83.9942L178.422 78.6056L179.916 76.9056Z" fill="#3C2C61"/>
<path d="M157.706 89.8387L156.281 87.3498L157.776 85.6498L167.031 80.2612L169.168 83.9946L159.913 89.3832L157.706 89.8387Z" fill="#3C2C61"/>
<path d="M180.92 83.5657V80.6917L178.783 79.9733H168.097V84.2842H178.783L180.92 83.5657Z" fill="#3C2C61"/>
<path d="M155.273 83.5657V80.6917L157.411 79.9733H168.097V84.2842H157.411L155.273 83.5657Z" fill="#3C2C61"/>
<path d="M175.744 71.6461L173.277 70.2092L171.591 71.7166L166.248 81.05L169.95 83.2055L175.293 73.8721L175.744 71.6461Z" fill="#3C2C61"/>
<path d="M162.919 94.0465L160.451 92.6095L160.903 90.3836L166.246 81.0502L169.948 83.2057L164.605 92.5391L162.919 94.0465Z" fill="#3C2C61"/>
<ellipse cx="168.097" cy="82.1285" rx="5.49562" ry="5.54256" fill="#BDACE6"/>
<defs>
<filter id="filter0_d_1797_61" x="0.229868" y="0" width="260.393" height="220.225" filterUnits="userSpaceOnUse" color-interpolation-filters="sRGB">
<feFlood flood-opacity="0" result="BackgroundImageFix"/>
<feColorMatrix in="SourceAlpha" type="matrix" values="0 0 0 0 0 0 0 0 0 0 0 0 0 0 0 0 0 0 127 0" result="hardAlpha"/>
<feOffset dy="2.77013"/>
<feGaussianBlur stdDeviation="1.38507"/>
<feComposite in2="hardAlpha" operator="out"/>
<feColorMatrix type="matrix" values="0 0 0 0 0 0 0 0 0 0 0 0 0 0 0 0 0 0 0.35 0"/>
<feBlend mode="normal" in2="BackgroundImageFix" result="effect1_dropShadow_1797_61"/>
<feBlend mode="normal" in="SourceGraphic" in2="effect1_dropShadow_1797_61" result="shape"/>
</filter>
</defs>
</svg>
