<svg width="50" height="50" viewBox="0 0 50 50" fill="none" xmlns="http://www.w3.org/2000/svg">
<circle cx="25" cy="25" r="25" fill="#BDACE6"/>
<g clip-path="url(#clip0_1774_618)">
<path d="M19.0223 15.3103C19.7732 15.5647 20.4877 15.9164 21.1473 16.3563C22.0789 16.1182 23.0368 15.9986 23.9983 16.0003C24.9913 16.0003 25.9493 16.1243 26.8473 16.3553C27.5066 15.9158 28.2207 15.5645 28.9713 15.3103C29.6683 15.0733 30.6613 14.6893 31.2513 15.3423C31.6513 15.7863 31.7513 16.5303 31.8223 17.0983C31.9023 17.7323 31.9213 18.5583 31.7113 19.3783C32.5143 20.4153 32.9983 21.6523 32.9983 23.0003C32.9983 25.0423 31.8923 26.8153 30.2553 28.0433C29.4675 28.6268 28.5937 29.0843 27.6653 29.3993C27.8793 29.8893 27.9983 30.4313 27.9983 31.0003V34.0003C27.9983 34.2655 27.8929 34.5199 27.7054 34.7074C27.5178 34.8949 27.2635 35.0003 26.9983 35.0003H20.9983C20.7331 35.0003 20.4787 34.8949 20.2912 34.7074C20.1036 34.5199 19.9983 34.2655 19.9983 34.0003V33.0093C19.0433 33.1263 18.2423 33.0223 17.5613 32.7333C16.8493 32.4313 16.3533 31.9633 15.9803 31.5153C15.6263 31.0913 15.2403 30.1353 14.6823 29.9493C14.5577 29.9078 14.4424 29.8422 14.3432 29.7561C14.2439 29.6701 14.1626 29.5654 14.1038 29.4479C13.9851 29.2107 13.9655 28.936 14.0493 28.6843C14.1331 28.4326 14.3134 28.2245 14.5507 28.1058C14.7879 27.9871 15.0626 27.9675 15.3143 28.0513C15.9803 28.2733 16.4143 28.7533 16.7113 29.1393C17.1913 29.7593 17.5813 30.5693 18.3413 30.8923C18.6543 31.0253 19.1133 31.1123 19.8313 31.0143L19.9983 30.9803C20.0002 30.4361 20.1135 29.898 20.3313 29.3993C19.4029 29.0843 18.5291 28.6269 17.7413 28.0433C16.1043 26.8153 14.9983 25.0433 14.9983 23.0003C14.9983 21.6543 15.4813 20.4183 16.2823 19.3823C16.0723 18.5623 16.0903 17.7343 16.1703 17.0993L16.1753 17.0613C16.2483 16.4793 16.3333 15.7943 16.7413 15.3423C17.3313 14.6893 18.3253 15.0743 19.0213 15.3113L19.0223 15.3103Z" fill="#3C2C61"/>
</g>
<defs>
<clipPath id="clip0_1774_618">
<rect width="24" height="24" fill="white" transform="translate(12 13)"/>
</clipPath>
</defs>
</svg>
