<svg width="25" height="24" viewBox="0 0 25 24" fill="none" xmlns="http://www.w3.org/2000/svg">
<rect x="0.429688" width="24" height="24" rx="12" fill="white"/>
<path d="M12.424 6.16504C9.17258 6.1637 6.53906 8.84495 6.53906 12.1543C6.53906 14.7713 8.18649 16.9958 10.4808 17.8128C10.7898 17.8918 10.7424 17.6682 10.7424 17.5155V16.4775C8.95827 16.6905 8.88596 15.4878 8.76631 15.2869C8.52439 14.8664 7.95246 14.7592 8.12338 14.5583C8.52965 14.3454 8.94381 14.6119 9.4237 15.3338C9.77081 15.8574 10.4479 15.7691 10.7911 15.682C10.866 15.3673 11.0264 15.086 11.2473 14.8677C9.39872 14.5302 8.62826 13.3811 8.62826 12.015C8.62826 11.3521 8.84257 10.7427 9.2633 10.2512C8.99508 9.44093 9.28828 8.74718 9.32773 8.64406C10.0916 8.57441 10.8857 9.2012 10.9475 9.25075C11.3814 9.13156 11.8771 9.06861 12.4319 9.06861C12.9894 9.06861 13.4864 9.13424 13.9242 9.25477C14.0728 9.13959 14.8091 8.6012 15.5191 8.66682C15.5572 8.76995 15.8438 9.44763 15.5914 10.2472C16.0174 10.74 16.2343 11.3548 16.2343 12.0191C16.2343 13.3878 15.4586 14.5383 13.6047 14.8704C13.7635 15.0295 13.8896 15.2192 13.9756 15.4284C14.0616 15.6377 14.1058 15.8623 14.1057 16.0891V17.5958C14.1162 17.7164 14.1057 17.8356 14.3029 17.8356C16.6314 17.036 18.3077 14.7954 18.3077 12.1557C18.3077 8.84495 15.6729 6.16504 12.424 6.16504V6.16504Z" fill="#4C377A"/>
</svg>
