<svg width="34" height="34" viewBox="0 0 34 34" fill="none" xmlns="http://www.w3.org/2000/svg">
<circle cx="17" cy="17" r="17" fill="#8A64E0"/>
<path d="M9 24V15C9 14.6833 9.071 14.3833 9.213 14.1C9.355 13.8167 9.55067 13.5833 9.8 13.4L15.8 8.9C16.15 8.63333 16.55 8.5 17 8.5C17.45 8.5 17.85 8.63333 18.2 8.9L24.2 13.4C24.45 13.5833 24.646 13.8167 24.788 14.1C24.93 14.3833 25.0007 14.6833 25 15V24C25 24.55 24.804 25.021 24.412 25.413C24.02 25.805 23.5493 26.0007 23 26H20C19.7167 26 19.4793 25.904 19.288 25.712C19.0967 25.52 19.0007 25.2827 19 25V20C19 19.7167 18.904 19.4793 18.712 19.288C18.52 19.0967 18.2827 19.0007 18 19H16C15.7167 19 15.4793 19.096 15.288 19.288C15.0967 19.48 15.0007 19.7173 15 20V25C15 25.2833 14.904 25.521 14.712 25.713C14.52 25.905 14.2827 26.0007 14 26H11C10.45 26 9.97933 25.8043 9.588 25.413C9.19667 25.0217 9.00067 24.5507 9 24Z" fill="white"/>
</svg>
