<svg width="25" height="24" viewBox="0 0 25 24" fill="none" xmlns="http://www.w3.org/2000/svg">
<rect x="0.613281" width="24" height="24" rx="12" fill="white"/>
<g clip-path="url(#clip0_361_83)">
<path fill-rule="evenodd" clip-rule="evenodd" d="M10.0224 5.75256C10.6927 5.7217 10.9064 5.71484 12.6138 5.71484C14.3213 5.71484 14.535 5.72227 15.2047 5.75256C15.8744 5.78284 16.3316 5.8897 16.7316 6.04456C17.1504 6.20284 17.5304 6.45027 17.8447 6.77027C18.1647 7.08399 18.4116 7.46342 18.5693 7.88284C18.7247 8.28284 18.831 8.73999 18.8618 9.40856C18.8927 10.08 18.8996 10.2937 18.8996 12.0006C18.8996 13.708 18.8921 13.9217 18.8618 14.592C18.8316 15.2606 18.7247 15.7177 18.5693 16.1177C18.4115 16.5372 18.1643 16.9172 17.8447 17.2314C17.5304 17.5514 17.1504 17.7983 16.7316 17.956C16.3316 18.1114 15.8744 18.2177 15.2058 18.2486C14.535 18.2794 14.3213 18.2863 12.6138 18.2863C10.9064 18.2863 10.6927 18.2788 10.0224 18.2486C9.35384 18.2183 8.8967 18.1114 8.4967 17.956C8.07722 17.7983 7.69717 17.551 7.38298 17.2314C7.0632 16.9175 6.81573 16.5376 6.65784 16.1183C6.50298 15.7183 6.3967 15.2611 6.36584 14.5926C6.33498 13.9211 6.32812 13.7074 6.32812 12.0006C6.32812 10.2931 6.33555 10.0794 6.36584 9.4097C6.39612 8.73999 6.50298 8.28284 6.65784 7.88284C6.81597 7.46346 7.06362 7.08359 7.38355 6.7697C7.69729 6.44999 8.07697 6.20253 8.49612 6.04456C8.89612 5.8897 9.35327 5.78342 10.0218 5.75256H10.0224ZM15.1538 6.88399C14.491 6.8537 14.2921 6.84742 12.6138 6.84742C10.9356 6.84742 10.7367 6.8537 10.0738 6.88399C9.4607 6.91199 9.12812 7.01427 8.90641 7.10056C8.61327 7.21484 8.40355 7.35027 8.18355 7.57027C7.97501 7.77316 7.81451 8.02015 7.71384 8.29313C7.62755 8.51484 7.52527 8.84741 7.49727 9.46056C7.46698 10.1234 7.4607 10.3223 7.4607 12.0006C7.4607 13.6788 7.46698 13.8777 7.49727 14.5406C7.52527 15.1537 7.62755 15.4863 7.71384 15.708C7.81441 15.9806 7.97498 16.228 8.18355 16.4308C8.38641 16.6394 8.63384 16.8 8.90641 16.9006C9.12812 16.9868 9.4607 17.0891 10.0738 17.1171C10.7367 17.1474 10.935 17.1537 12.6138 17.1537C14.2927 17.1537 14.491 17.1474 15.1538 17.1171C15.767 17.0891 16.0996 16.9868 16.3213 16.9006C16.6144 16.7863 16.8241 16.6508 17.0441 16.4308C17.2527 16.228 17.4133 15.9806 17.5138 15.708C17.6001 15.4863 17.7024 15.1537 17.7304 14.5406C17.7607 13.8777 17.767 13.6788 17.767 12.0006C17.767 10.3223 17.7607 10.1234 17.7304 9.46056C17.7024 8.84741 17.6001 8.51484 17.5138 8.29313C17.3996 7.99999 17.2641 7.79027 17.0441 7.57027C16.8412 7.36174 16.5942 7.20125 16.3213 7.10056C16.0996 7.01427 15.767 6.91199 15.1538 6.88399V6.88399ZM11.811 13.9383C12.2594 14.1249 12.7586 14.1501 13.2235 14.0095C13.6884 13.869 14.0901 13.5714 14.3599 13.1676C14.6297 12.7637 14.751 12.2788 14.703 11.7955C14.655 11.3122 14.4407 10.8605 14.0967 10.5177C13.8774 10.2985 13.6122 10.1307 13.3203 10.0264C13.0284 9.92198 12.7169 9.88362 12.4084 9.91405C12.0999 9.94448 11.8019 10.0429 11.536 10.2023C11.2701 10.3617 11.0428 10.5781 10.8706 10.8359C10.6983 11.0937 10.5854 11.3864 10.5398 11.6931C10.4943 11.9998 10.5174 12.3127 10.6073 12.6094C10.6972 12.9061 10.8518 13.1792 11.06 13.409C11.2681 13.6387 11.5246 13.8195 11.811 13.9383ZM10.3293 9.71599C10.6293 9.41597 10.9855 9.17799 11.3774 9.01562C11.7694 8.85326 12.1896 8.76969 12.6138 8.76969C13.0381 8.76969 13.4583 8.85325 13.8502 9.01562C14.2422 9.17799 14.5984 9.41597 14.8984 9.71599C15.1984 10.016 15.4364 10.3722 15.5988 10.7642C15.7611 11.1561 15.8447 11.5763 15.8447 12.0006C15.8447 12.4248 15.7611 12.845 15.5988 13.237C15.4364 13.6289 15.1984 13.9851 14.8984 14.2851C14.2925 14.891 13.4707 15.2314 12.6138 15.2314C11.757 15.2314 10.9352 14.891 10.3293 14.2851C9.72336 13.6792 9.38297 12.8574 9.38297 12.0006C9.38297 11.1437 9.72336 10.3219 10.3293 9.71599V9.71599ZM16.5613 9.25084C16.6356 9.18071 16.6951 9.09638 16.7363 9.00283C16.7775 8.90928 16.7994 8.80843 16.8009 8.70623C16.8024 8.60404 16.7834 8.50259 16.745 8.40788C16.7065 8.31317 16.6495 8.22714 16.5772 8.15487C16.505 8.0826 16.4189 8.02556 16.3242 7.98714C16.2295 7.94872 16.1281 7.92969 16.0259 7.93118C15.9237 7.93267 15.8228 7.95465 15.7293 7.99581C15.6357 8.03698 15.5514 8.0965 15.4813 8.17084C15.3449 8.31543 15.2702 8.50748 15.2731 8.70623C15.276 8.90498 15.3562 9.09477 15.4968 9.23533C15.6373 9.37588 15.8271 9.45612 16.0259 9.45901C16.2246 9.46191 16.4167 9.38724 16.5613 9.25084V9.25084Z" fill="#4C377A"/>
</g>
<defs>
<clipPath id="clip0_361_83">
<rect width="13.7143" height="13.7143" fill="white" transform="translate(5.75586 5.14355)"/>
</clipPath>
</defs>
</svg>
