<svg width="88" height="88" viewBox="0 0 88 88" fill="none" xmlns="http://www.w3.org/2000/svg">
<g filter="url(#filter0_d_1791_51)">
<rect x="4" width="80" height="80" rx="40" fill="#BDACE6"/>
</g>
<path d="M38.7643 49.3631C38.7643 49.3631 37.3864 50.165 39.7463 50.4355C42.6057 50.7622 44.0669 50.7154 47.2171 50.1199C47.2171 50.1199 48.047 50.6388 49.2038 51.0885C42.1394 54.115 33.2163 50.9131 38.7643 49.3631ZM37.9006 45.4131C37.9006 45.4131 36.3547 46.5575 38.7166 46.802C41.7711 47.1174 44.1828 47.1431 48.358 46.3395C48.358 46.3395 48.9341 46.9249 49.8415 47.2446C41.302 49.7421 31.7907 47.4411 37.9006 45.4131Z" fill="#3C2C61"/>
<path d="M45.1772 38.7113C46.9188 40.7159 44.7205 42.5182 44.7205 42.5182C44.7205 42.5182 49.1399 40.2372 47.1107 37.3796C45.2147 34.7159 43.7613 33.3928 51.6302 28.8291C51.6302 28.8294 39.2783 31.9134 45.1772 38.7113Z" fill="#3C2C61"/>
<path d="M54.5199 52.2848C54.5199 52.2848 55.54 53.1259 53.396 53.776C49.3197 55.0109 36.4263 55.3832 32.8454 53.8255C31.5588 53.2653 33.9725 52.4886 34.7318 52.3247C35.5236 52.1532 35.9757 52.1845 35.9757 52.1845C34.5439 51.1765 26.7219 54.1645 32.0031 55.0216C46.4045 57.3561 58.2549 53.9703 54.5199 52.2848ZM39.4276 41.3192C39.4276 41.3192 32.87 42.8769 37.1056 43.4432C38.8943 43.6826 42.4585 43.6276 45.7807 43.349C48.495 43.1209 51.2188 42.6338 51.2188 42.6338C51.2188 42.6338 50.2626 43.044 49.57 43.5164C42.9094 45.2684 30.0455 44.4523 33.7493 42.6613C36.8804 41.1469 39.4276 41.3192 39.4276 41.3192ZM51.1916 47.8945C57.9618 44.3775 54.8312 40.9975 52.6462 41.4527C52.112 41.564 51.8724 41.6609 51.8724 41.6609C51.8724 41.6609 52.0712 41.349 52.4505 41.2148C56.7728 39.6958 60.0965 45.6962 51.0563 48.0728C51.0563 48.0723 51.1601 47.9783 51.1916 47.8945Z" fill="#3C2C61"/>
<path d="M47.1107 21.459C47.1107 21.459 50.8592 25.2099 43.5543 30.9758C37.6962 35.6025 42.2186 38.2399 43.5523 41.2546C40.1324 38.1694 37.6239 35.4531 39.3066 32.9252C41.7775 29.2154 48.6228 27.416 47.1107 21.459Z" fill="#3C2C61"/>
<path d="M40.0932 57.4278C46.5901 57.8432 56.5697 57.1965 56.8059 54.1221C56.8059 54.1221 56.3518 55.2876 51.436 56.2123C45.89 57.2564 39.0485 57.1347 34.9921 56.4649C34.9921 56.4652 35.8231 57.1532 40.0932 57.4278Z" fill="#3C2C61"/>
<defs>
<filter id="filter0_d_1791_51" x="0.0324454" y="0" width="87.9351" height="87.9351" filterUnits="userSpaceOnUse" color-interpolation-filters="sRGB">
<feFlood flood-opacity="0" result="BackgroundImageFix"/>
<feColorMatrix in="SourceAlpha" type="matrix" values="0 0 0 0 0 0 0 0 0 0 0 0 0 0 0 0 0 0 127 0" result="hardAlpha"/>
<feOffset dy="3.96755"/>
<feGaussianBlur stdDeviation="1.98378"/>
<feComposite in2="hardAlpha" operator="out"/>
<feColorMatrix type="matrix" values="0 0 0 0 0 0 0 0 0 0 0 0 0 0 0 0 0 0 0.25 0"/>
<feBlend mode="normal" in2="BackgroundImageFix" result="effect1_dropShadow_1791_51"/>
<feBlend mode="normal" in="SourceGraphic" in2="effect1_dropShadow_1791_51" result="shape"/>
</filter>
</defs>
</svg>
