<svg width="40" height="40" viewBox="0 0 40 40" fill="none" xmlns="http://www.w3.org/2000/svg">
<path d="M20.001 8C26.6284 8.00023 32.0008 13.3735 32.001 20.001C32.0007 26.6284 26.6284 32.0008 20.001 32.001C13.3734 32.001 8.00023 26.6285 8 20.001C8.00013 13.3734 13.3733 8 20.001 8ZM16.8584 27.4316C17.4346 28.3799 18.1544 29.3204 19.043 30.2402L18.8408 30.4355C19.0456 30.458 19.2518 30.4768 19.46 30.4873L20.001 30.501C20.3577 30.501 20.7101 30.482 21.0576 30.4473L20.8438 30.2402C21.7323 29.3204 22.4521 28.3799 23.0283 27.4316H16.8584ZM24.7549 27.4316C24.2834 28.3186 23.7037 29.1993 23.001 30.0654C24.6904 29.5625 26.1995 28.6445 27.415 27.4316H24.7549ZM12.5811 27.4316C13.76 28.6087 15.2183 29.5043 16.8467 30.0166C16.1616 29.1661 15.5945 28.302 15.1318 27.4316H12.5811ZM9.5293 20.752C9.66461 22.6658 10.3105 24.4377 11.335 25.9316H14.4355C13.7447 24.191 13.4402 22.4437 13.4121 20.752H9.5293ZM14.9111 20.752C14.942 22.4422 15.283 24.191 16.0674 25.9316H23.8193C24.6037 24.191 24.9447 22.4422 24.9756 20.752H14.9111ZM26.4746 20.752C26.4465 22.4437 26.142 24.191 25.4512 25.9316H28.6631C29.688 24.4374 30.3363 22.6664 30.4717 20.752H26.4746ZM11.2568 14.1875C10.2777 15.6572 9.66082 17.3871 9.5293 19.252H13.458C13.487 18.8812 13.5274 18.514 13.5801 18.1514C13.7837 16.7508 14.1575 15.4177 14.626 14.1875H11.2568ZM16.2402 14.1875C15.7087 15.466 15.281 16.8777 15.0645 18.3672C15.022 18.6592 14.9886 18.9543 14.9629 19.252H24.9238C24.8981 18.9543 24.8647 18.6592 24.8223 18.3672C24.6057 16.8777 24.178 15.466 23.6465 14.1875H16.2402ZM25.2607 14.1875C25.7292 15.4177 26.103 16.7508 26.3066 18.1514C26.3594 18.514 26.3997 18.8812 26.4287 19.252H30.4717C30.3402 17.387 29.7232 15.6572 28.7441 14.1875H25.2607ZM16.7891 10.002C15.1312 10.5341 13.6544 11.4678 12.4697 12.6875H15.2656C15.7373 11.6921 16.2605 10.7886 16.7891 10.002ZM20.001 9.5C19.6603 9.5 19.3235 9.51712 18.9912 9.54883C18.3173 10.3608 17.5904 11.4318 16.9385 12.6875H22.9482C22.2935 11.4263 21.5621 10.3523 20.8857 9.53906C20.7713 9.52951 20.6565 9.51953 20.541 9.51367L20.001 9.5ZM23.0645 9.9541C23.6041 10.7519 24.1397 11.6717 24.6211 12.6875H27.5332C26.3132 11.4311 24.7829 10.4775 23.0645 9.9541Z" fill="#BDACE6"/>
</svg>
