<svg width="22" height="22" viewBox="0 0 20 20" fill="none" xmlns="http://www.w3.org/2000/svg">
    <path d="M16.5625 0C18.461 0 20 1.53902 20 3.4375V16.5625C20 18.461 18.461 20 16.5625 20H3.4375C1.53902 20 0 18.461 0 16.5625V3.4375C0 1.53902 1.53902 0 3.4375 0H16.5625ZM15.3506 5.66309C15.01 4.80261 13.7847 4.77208 13.4014 5.61426L13.3662 5.70117L9.43066 16.5986C9.25497 17.0856 9.50723 17.623 9.99414 17.7988C10.481 17.9746 11.0184 17.7222 11.1943 17.2354L12.3242 14.1045H15.9727L16.916 17.1904L16.9482 17.2812C17.1324 17.7191 17.6228 17.9553 18.0869 17.8135C18.5818 17.662 18.8601 17.1376 18.709 16.6426L15.3809 5.75195L15.3506 5.66309ZM6.25 1.875C5.73223 1.875 5.3125 2.29473 5.3125 2.8125H2.1875C1.66973 2.8125 1.25 3.23223 1.25 3.75C1.25 4.26777 1.66973 4.6875 2.1875 4.6875H8.56152C8.12139 5.76283 7.54238 6.76685 6.84375 7.67773C6.35985 7.00641 5.95765 6.27542 5.64746 5.5L5.55762 5.27734C5.36537 4.79672 4.8205 4.56283 4.33984 4.75488C3.85911 4.94718 3.62509 5.4929 3.81738 5.97363L3.90625 6.19629C4.32517 7.2436 4.88719 8.22182 5.57129 9.10547C4.79505 9.85742 3.92501 10.5168 2.97363 11.0605C2.52413 11.3175 2.36811 11.8913 2.625 12.3408C2.88202 12.79 3.4549 12.9453 3.9043 12.6885C4.97471 12.0767 5.95509 11.3367 6.83203 10.4941C7.16221 10.8058 7.50951 11.1009 7.875 11.375L7.95508 11.4287C8.36205 11.6738 8.8963 11.5758 9.1875 11.1875C9.47871 10.7992 9.42349 10.2586 9.07422 9.93652L9 9.875C8.68387 9.63789 8.38348 9.38264 8.09863 9.1123C9.09377 7.88041 9.89657 6.49131 10.4609 4.98633L10.5664 4.70312C10.5683 4.69801 10.5695 4.69263 10.5713 4.6875H10.9375C11.4553 4.6875 11.875 4.26777 11.875 3.75C11.875 3.23223 11.4553 2.8125 10.9375 2.8125H7.1875C7.1875 2.29473 6.76777 1.875 6.25 1.875ZM15.3994 12.2295H13.001L14.2998 8.63184L15.3994 12.2295Z" fill="white"/>
    </svg>
    