<svg width="24" height="24" viewBox="0 0 24 24" fill="none" xmlns="http://www.w3.org/2000/svg">
<rect width="24" height="23.3073" rx="11.6536" fill="white"/>
<path fill-rule="evenodd" clip-rule="evenodd" d="M10.5832 10.2041H12.3745V11.1083C12.6326 10.5882 13.2943 10.121 14.2884 10.121C16.1941 10.121 16.6465 11.1562 16.6465 13.0555V16.5732H14.7172V13.4881C14.7172 12.4065 14.4591 11.7965 13.8022 11.7965C12.8911 11.7965 12.5125 12.4539 12.5125 13.4876V16.5732H10.5832V10.2041V10.2041ZM7.27492 16.4901H9.20422V10.121H7.27492V16.4901V16.4901ZM9.48059 8.04421C9.48067 8.20808 9.4486 8.37033 9.38625 8.52153C9.3239 8.67274 9.23251 8.80987 9.1174 8.92497C8.88415 9.15988 8.56843 9.29138 8.23957 9.29057C7.9113 9.29034 7.5963 9.15919 7.36271 8.92546C7.24802 8.80997 7.15694 8.67268 7.0947 8.52146C7.03246 8.37024 7.00028 8.20806 7 8.04421C7 7.71331 7.13023 7.39659 7.36319 7.16296C7.59658 6.92892 7.91171 6.79771 8.24006 6.79785C8.569 6.79785 8.88444 6.92933 9.1174 7.16296C9.34988 7.39659 9.48059 7.71331 9.48059 8.04421Z" fill="#4C377A"/>
</svg>
