<svg width="34" height="34" viewBox="0 0 34 34" fill="none" xmlns="http://www.w3.org/2000/svg">
<rect x="14.5645" y="25.1562" width="4.72009" height="16.2961" transform="rotate(-180 14.5645 25.1562)" fill="white"/>
<rect x="9.84375" y="13.0879" width="4.22819" height="14.2586" transform="rotate(-90 9.84375 13.0879)" fill="white"/>
<rect x="16.334" y="19.166" width="4.22819" height="7.76848" transform="rotate(-90 16.334 19.166)" fill="white"/>
<rect width="4.22819" height="11.4069" transform="matrix(0 1 1 0 12.6973 20.9268)" fill="white"/>
<rect width="4.72009" height="8.54446" transform="matrix(1 0 0 -1 19.3828 25.1562)" fill="white"/>
<rect x="14.5938" y="28.5898" width="5.40974" height="14.5945" transform="rotate(90 14.5938 28.5898)" fill="#BDACE6"/>
<rect x="6.03906" y="34" width="6.0391" height="13.0735" transform="rotate(-180 6.03906 34)" fill="#BDACE6"/>
<rect x="19.4043" y="5.41016" width="5.40974" height="14.5945" transform="rotate(-90 19.4043 5.41016)" fill="#BDACE6"/>
<rect x="27.959" width="6.0391" height="13.0735" fill="#BDACE6"/>
</svg>
