<svg width="68" height="68" viewBox="0 0 68 68" fill="none" xmlns="http://www.w3.org/2000/svg">
<mask id="path-1-inside-1_1595_199" fill="white">
<path d="M67.3398 12.1855L45.8555 33.6699L67.3398 55.1543L55.1543 67.3398L33.6699 45.8555L12.1855 67.3398L0 55.1543L21.4844 33.6699L0 12.1855L12.1855 0L33.6699 21.4844L55.1543 0L67.3398 12.1855Z"/>
</mask>
<path d="M67.3398 12.1855L69.4612 14.3069L71.5825 12.1855L69.4612 10.0642L67.3398 12.1855ZM45.8555 33.6699L43.7341 31.5486L41.6128 33.6699L43.7341 35.7912L45.8555 33.6699ZM67.3398 55.1543L69.4612 57.2756L71.5825 55.1543L69.4612 53.033L67.3398 55.1543ZM55.1543 67.3398L53.033 69.4612L55.1543 71.5825L57.2756 69.4612L55.1543 67.3398ZM33.6699 45.8555L35.7912 43.7341L33.6699 41.6128L31.5486 43.7341L33.6699 45.8555ZM12.1855 67.3398L10.0642 69.4612L12.1855 71.5825L14.3069 69.4612L12.1855 67.3398ZM0 55.1543L-2.12132 53.033L-4.24264 55.1543L-2.12132 57.2756L0 55.1543ZM21.4844 33.6699L23.6057 35.7912L25.727 33.6699L23.6057 31.5486L21.4844 33.6699ZM0 12.1855L-2.12132 10.0642L-4.24264 12.1855L-2.12132 14.3069L0 12.1855ZM12.1855 0L14.3069 -2.12132L12.1855 -4.24264L10.0642 -2.12132L12.1855 0ZM33.6699 21.4844L31.5486 23.6057L33.6699 25.727L35.7912 23.6057L33.6699 21.4844ZM55.1543 0L57.2756 -2.12132L55.1543 -4.24264L53.033 -2.12132L55.1543 0ZM67.3398 12.1855L65.2185 10.0642L43.7341 31.5486L45.8555 33.6699L47.9768 35.7912L69.4612 14.3069L67.3398 12.1855ZM45.8555 33.6699L43.7341 35.7912L65.2185 57.2756L67.3398 55.1543L69.4612 53.033L47.9768 31.5486L45.8555 33.6699ZM67.3398 55.1543L65.2185 53.033L53.033 65.2185L55.1543 67.3398L57.2756 69.4612L69.4612 57.2756L67.3398 55.1543ZM55.1543 67.3398L57.2756 65.2185L35.7912 43.7341L33.6699 45.8555L31.5486 47.9768L53.033 69.4612L55.1543 67.3398ZM33.6699 45.8555L31.5486 43.7341L10.0642 65.2185L12.1855 67.3398L14.3069 69.4612L35.7912 47.9768L33.6699 45.8555ZM12.1855 67.3398L14.3069 65.2185L2.12132 53.033L0 55.1543L-2.12132 57.2756L10.0642 69.4612L12.1855 67.3398ZM0 55.1543L2.12132 57.2756L23.6057 35.7912L21.4844 33.6699L19.3631 31.5486L-2.12132 53.033L0 55.1543ZM21.4844 33.6699L23.6057 31.5486L2.12132 10.0642L0 12.1855L-2.12132 14.3069L19.3631 35.7912L21.4844 33.6699ZM0 12.1855L2.12132 14.3069L14.3069 2.12132L12.1855 0L10.0642 -2.12132L-2.12132 10.0642L0 12.1855ZM12.1855 0L10.0642 2.12132L31.5486 23.6057L33.6699 21.4844L35.7912 19.3631L14.3069 -2.12132L12.1855 0ZM33.6699 21.4844L35.7912 23.6057L57.2756 2.12132L55.1543 0L53.033 -2.12132L31.5486 19.3631L33.6699 21.4844ZM55.1543 0L53.033 2.12132L65.2185 14.3069L67.3398 12.1855L69.4612 10.0642L57.2756 -2.12132L55.1543 0Z" fill="#BDACE6" mask="url(#path-1-inside-1_1595_199)"/>
</svg>
