<svg width="88" height="88" viewBox="0 0 88 88" fill="none" xmlns="http://www.w3.org/2000/svg">
<g filter="url(#filter0_d_1794_98)">
<rect x="4" width="80" height="80" rx="40" fill="#BDACE6"/>
</g>
<g clip-path="url(#clip0_1794_98)">
<path d="M59.6619 23.9199C59.144 25.1632 58.4806 26.3408 57.6856 27.428C54.2035 23.948 49.4822 21.9928 44.5593 21.9922C34.3782 21.9922 26 30.3773 26 40.5697C26 43.0865 26.5109 45.5772 27.5019 47.8908C28.493 50.2043 29.9434 52.2926 31.7654 54.029L32.4499 54.636C35.7952 57.4565 40.0293 59.0047 44.4049 59.0072C54.0847 59.0072 62.2218 51.4222 62.911 41.7551C63.4171 37.0229 62.029 31.0375 59.6619 23.9199ZM34.4022 54.1348C34.2532 54.3184 34.0651 54.4664 33.8516 54.5681C33.6381 54.6699 33.4046 54.7227 33.1682 54.7227C32.2958 54.7227 31.5821 54.0047 31.5821 53.1323C31.5821 52.2599 32.3004 51.5422 33.1682 51.5422C33.5295 51.5422 33.8865 51.6673 34.166 51.8989C34.8456 52.4481 34.9517 53.4552 34.4022 54.1348ZM59.585 48.5738C55.0054 54.6794 45.2244 52.6215 38.9529 52.9155C38.9529 52.9155 37.8394 52.9832 36.721 53.1661C36.721 53.1661 37.1402 52.9878 37.6851 52.7805C42.0863 51.2482 44.1687 50.9493 46.844 49.576C51.8815 47.0123 56.8612 41.403 57.8978 35.5671C55.9792 41.1813 50.1653 46.0052 44.8677 47.9665C41.2379 49.3063 34.6817 50.6074 34.6817 50.6074L34.4166 50.4674C29.9529 48.2943 29.8176 38.6225 37.9308 35.4998C41.4836 34.1311 44.8821 34.8829 48.7194 33.9672C52.8169 32.9939 57.5555 29.9191 59.4836 25.9099C61.6431 32.3241 64.2418 42.3668 59.585 48.5738Z" fill="#3C2C61"/>
</g>
<defs>
<filter id="filter0_d_1794_98" x="0.0324454" y="0" width="87.9351" height="87.9351" filterUnits="userSpaceOnUse" color-interpolation-filters="sRGB">
<feFlood flood-opacity="0" result="BackgroundImageFix"/>
<feColorMatrix in="SourceAlpha" type="matrix" values="0 0 0 0 0 0 0 0 0 0 0 0 0 0 0 0 0 0 127 0" result="hardAlpha"/>
<feOffset dy="3.96755"/>
<feGaussianBlur stdDeviation="1.98378"/>
<feComposite in2="hardAlpha" operator="out"/>
<feColorMatrix type="matrix" values="0 0 0 0 0 0 0 0 0 0 0 0 0 0 0 0 0 0 0.25 0"/>
<feBlend mode="normal" in2="BackgroundImageFix" result="effect1_dropShadow_1794_98"/>
<feBlend mode="normal" in="SourceGraphic" in2="effect1_dropShadow_1794_98" result="shape"/>
</filter>
<clipPath id="clip0_1794_98">
<rect width="37" height="37" fill="white" transform="translate(26 22)"/>
</clipPath>
</defs>
</svg>
