<svg width="88" height="88" viewBox="0 0 88 88" fill="none" xmlns="http://www.w3.org/2000/svg">
<g filter="url(#filter0_d_1794_112)">
<rect x="4" width="80" height="80" rx="40" fill="#BDACE6"/>
</g>
<path d="M50.5059 46.6729C51.4261 46.6729 52.2639 46.8843 53.0186 47.3076C53.7824 47.731 54.3854 48.325 54.8271 49.0889C55.2688 49.8434 55.4892 50.6993 55.4893 51.6562C55.4893 52.4569 55.3279 53.1979 55.0059 53.8789C54.6837 54.5508 54.2421 55.1125 53.6807 55.5635L55.7383 58.1865H52.5078L51.4307 56.5713C51.127 56.6265 50.8187 56.6543 50.5059 56.6543C49.5948 56.6543 48.757 56.4428 47.9932 56.0195C47.2293 55.587 46.6219 54.9929 46.1709 54.2383C45.7291 53.4744 45.5078 52.6135 45.5078 51.6562C45.5079 50.6992 45.7292 49.8435 46.1709 49.0889C46.6219 48.325 47.2293 47.731 47.9932 47.3076C48.757 46.8843 49.5948 46.6729 50.5059 46.6729ZM40.6602 46.6729C41.7922 46.6729 42.6943 46.9398 43.3662 47.4736C44.0473 47.9983 44.411 48.7391 44.457 49.6963H41.5166C41.5074 49.4018 41.4151 49.1805 41.2402 49.0332C41.0747 48.8861 40.8584 48.8126 40.5918 48.8125C40.3894 48.8125 40.2236 48.8726 40.0947 48.9922C39.9659 49.1118 39.9014 49.282 39.9014 49.5029C39.9014 49.687 39.9703 49.8483 40.1084 49.9863C40.2556 50.1151 40.435 50.2299 40.6465 50.3311C40.8581 50.4231 41.171 50.5432 41.585 50.6904C42.2016 50.9021 42.7087 51.1135 43.1045 51.3252C43.5093 51.5277 43.8544 51.8181 44.1396 52.1953C44.4341 52.5634 44.5811 53.033 44.5811 53.6035C44.581 54.1832 44.434 54.703 44.1396 55.1631C43.8543 55.6233 43.435 55.987 42.8828 56.2539C42.3398 56.5207 41.6956 56.6543 40.9502 56.6543C39.8182 56.6543 38.8882 56.3873 38.1611 55.8535C37.4342 55.3105 37.0435 54.5373 36.9883 53.5342H39.873C39.9006 53.8744 40.0022 54.1228 40.1768 54.2793C40.3516 54.4357 40.5775 54.5146 40.8535 54.5146C41.102 54.5146 41.3045 54.4545 41.4609 54.335C41.6266 54.2061 41.7099 54.0313 41.71 53.8105C41.71 53.5253 41.5764 53.3039 41.3096 53.1475C41.0427 52.991 40.6099 52.8163 40.0117 52.623C39.3767 52.4114 38.8606 52.2089 38.4648 52.0156C38.0784 51.8131 37.7378 51.5228 37.4434 51.1455C37.1582 50.759 37.0156 50.2571 37.0156 49.6406C37.0157 49.0149 37.1725 48.4808 37.4854 48.0391C37.7983 47.5883 38.2311 47.2476 38.7832 47.0176C39.3353 46.7876 39.9609 46.6729 40.6602 46.6729ZM59.4258 54.4873H62.4492V56.5576H56.7197V46.8242H59.4258V54.4873ZM50.5059 49.1582C49.8064 49.1582 49.2581 49.383 48.8623 49.834C48.4666 50.2757 48.2696 50.8833 48.2695 51.6562C48.2695 52.4202 48.4665 53.0285 48.8623 53.4795C49.2581 53.9212 49.8064 54.1416 50.5059 54.1416C51.196 54.1415 51.739 53.9158 52.1348 53.4648C52.5396 53.0139 52.7422 52.4108 52.7422 51.6562C52.7421 50.8833 52.5397 50.2757 52.1348 49.834C51.7391 49.3831 51.196 49.1583 50.5059 49.1582ZM43.4082 42.0146C43.4082 43.0696 39.9138 45.0097 34.2041 45.0098C28.4942 45.0098 24.9997 43.0708 25.002 42.0146V36.9482C25.0618 36.9851 25.1314 37.0172 25.1924 37.0518C25.3777 37.1607 25.5672 37.2627 25.7598 37.3584C26.0795 37.5165 26.4062 37.6604 26.7393 37.7881L26.957 37.8721C29.304 38.6636 31.7488 39.0516 34.2051 39.0205C36.6685 39.049 39.1191 38.6605 41.4531 37.8721C41.5268 37.8445 41.5996 37.8165 41.6709 37.7881C41.9084 37.6954 42.1382 37.5982 42.3604 37.4971C42.6536 37.3638 42.9401 37.215 43.2178 37.0518C43.2787 37.0172 43.3484 36.9851 43.4082 36.9482V42.0146ZM25.1924 28.54C25.3778 28.6494 25.5672 28.7525 25.7598 28.8486C26.0795 29.0063 26.4063 29.1491 26.7393 29.2764L26.957 29.3623C29.304 30.1538 31.7489 30.5408 34.2051 30.5098C36.6685 30.5382 39.1191 30.1507 41.4531 29.3623C41.5268 29.3347 41.5996 29.3055 41.6709 29.2764C41.9038 29.1869 42.1337 29.0897 42.3604 28.9854C42.6535 28.8525 42.9401 28.7048 43.2178 28.542C43.2787 28.5063 43.3484 28.4732 43.4082 28.4375V33.5049C43.4079 34.5599 39.9136 36.499 34.2041 36.499C28.4945 36.499 25.0003 34.5599 25 33.5049V28.4365C25.0598 28.4733 25.1291 28.5055 25.1924 28.54ZM34.2041 22C39.2864 22 43.4075 23.34 43.4082 24.9941C43.4082 26.6474 39.2869 27.9882 34.2041 27.9883C29.1213 27.9883 25 26.6474 25 24.9941C25.0007 23.3399 29.1217 22 34.2041 22Z" fill="#3C2C61"/>
<defs>
<filter id="filter0_d_1794_112" x="0.0324454" y="0" width="87.9351" height="87.9351" filterUnits="userSpaceOnUse" color-interpolation-filters="sRGB">
<feFlood flood-opacity="0" result="BackgroundImageFix"/>
<feColorMatrix in="SourceAlpha" type="matrix" values="0 0 0 0 0 0 0 0 0 0 0 0 0 0 0 0 0 0 127 0" result="hardAlpha"/>
<feOffset dy="3.96755"/>
<feGaussianBlur stdDeviation="1.98378"/>
<feComposite in2="hardAlpha" operator="out"/>
<feColorMatrix type="matrix" values="0 0 0 0 0 0 0 0 0 0 0 0 0 0 0 0 0 0 0.25 0"/>
<feBlend mode="normal" in2="BackgroundImageFix" result="effect1_dropShadow_1794_112"/>
<feBlend mode="normal" in="SourceGraphic" in2="effect1_dropShadow_1794_112" result="shape"/>
</filter>
</defs>
</svg>
