<svg width="24" height="24" viewBox="0 0 24 24" fill="none" xmlns="http://www.w3.org/2000/svg">
<path d="M13 24H11V17.1533C11.3238 17.2158 11.6579 17.25 12 17.25C12.3421 17.25 12.6762 17.2158 13 17.1533V24ZM7.64746 14.9365C8.02394 15.4935 8.50479 15.9738 9.06152 16.3506L4.2207 21.1924L2.80664 19.7783L7.64746 14.9365ZM21.1914 19.7783L19.7773 21.1924L14.9365 16.3516C15.4935 15.975 15.9739 15.4944 16.3506 14.9375L21.1914 19.7783ZM12 8.25C14.0711 8.25 15.75 9.92893 15.75 12C15.75 14.0711 14.0711 15.75 12 15.75C9.92893 15.75 8.25 14.0711 8.25 12C8.25 9.92893 9.92893 8.25 12 8.25ZM6.8457 11C6.78326 11.3238 6.75 11.658 6.75 12C6.75 12.342 6.78326 12.6762 6.8457 13H0V11H6.8457ZM24 13H17.1543C17.2167 12.6762 17.25 12.342 17.25 12C17.25 11.658 17.2167 11.3238 17.1543 11H24V13ZM9.06152 7.64844C8.50482 8.0251 8.02398 8.5057 7.64746 9.0625L2.80664 4.22168L4.2207 2.80762L9.06152 7.64844ZM21.1914 4.22168L16.3506 9.06152C15.9738 8.50479 15.4935 8.02394 14.9365 7.64746L19.7773 2.80762L21.1914 4.22168ZM13 6.8457C12.6762 6.78326 12.342 6.75 12 6.75C11.658 6.75 11.3238 6.78326 11 6.8457V0H13V6.8457Z" fill="#BDACE6"/>
</svg>
