<svg width="40" height="40" viewBox="0 0 40 40" fill="none" xmlns="http://www.w3.org/2000/svg">
<path d="M21 32H19V25.1533C19.3238 25.2158 19.6579 25.25 20 25.25C20.3421 25.25 20.6762 25.2158 21 25.1533V32ZM15.6475 22.9365C16.0239 23.4935 16.5048 23.9738 17.0615 24.3506L12.2207 29.1924L10.8066 27.7783L15.6475 22.9365ZM29.1914 27.7783L27.7773 29.1924L22.9365 24.3516C23.4935 23.975 23.9739 23.4944 24.3506 22.9375L29.1914 27.7783ZM20 16.25C22.0711 16.25 23.75 17.9289 23.75 20C23.75 22.0711 22.0711 23.75 20 23.75C17.9289 23.75 16.25 22.0711 16.25 20C16.25 17.9289 17.9289 16.25 20 16.25ZM14.8457 19C14.7833 19.3238 14.75 19.658 14.75 20C14.75 20.342 14.7833 20.6762 14.8457 21H8V19H14.8457ZM32 21H25.1543C25.2167 20.6762 25.25 20.342 25.25 20C25.25 19.658 25.2167 19.3238 25.1543 19H32V21ZM17.0615 15.6484C16.5048 16.0251 16.024 16.5057 15.6475 17.0625L10.8066 12.2217L12.2207 10.8076L17.0615 15.6484ZM29.1914 12.2217L24.3506 17.0615C23.9738 16.5048 23.4935 16.0239 22.9365 15.6475L27.7773 10.8076L29.1914 12.2217ZM21 14.8457C20.6762 14.7833 20.342 14.75 20 14.75C19.658 14.75 19.3238 14.7833 19 14.8457V8H21V14.8457Z" fill="#BDACE6"/>
</svg>
