<svg width="24" height="24" viewBox="0 0 24 24" fill="none" xmlns="http://www.w3.org/2000/svg">
<path d="M10.6325 2.53166C11.2199 1.44423 12.7801 1.44423 13.3675 2.53166V2.53166C13.7919 3.31735 14.7895 3.58467 15.5499 3.11644V3.11644C16.6023 2.46838 17.9535 3.24848 17.9184 4.48391V4.48391C17.8931 5.37654 18.6235 6.10687 19.5161 6.08156V6.08156C20.7515 6.04653 21.5316 7.3977 20.8836 8.4501V8.4501C20.4153 9.21048 20.6826 10.2081 21.4683 10.6325V10.6325C22.5558 11.2199 22.5558 12.7801 21.4683 13.3675V13.3675C20.6826 13.7919 20.4153 14.7895 20.8836 15.5499V15.5499C21.5316 16.6023 20.7515 17.9535 19.5161 17.9184V17.9184C18.6235 17.8931 17.8931 18.6235 17.9184 19.5161V19.5161C17.9535 20.7515 16.6023 21.5316 15.5499 20.8836V20.8836C14.7895 20.4153 13.7919 20.6826 13.3675 21.4683V21.4683C12.7801 22.5558 11.2199 22.5558 10.6325 21.4683V21.4683C10.2081 20.6826 9.21048 20.4153 8.4501 20.8836V20.8836C7.3977 21.5316 6.04653 20.7515 6.08156 19.5161V19.5161C6.10687 18.6235 5.37654 17.8931 4.48391 17.9184V17.9184C3.24848 17.9535 2.46838 16.6023 3.11644 15.5499V15.5499C3.58467 14.7895 3.31735 13.7919 2.53166 13.3675V13.3675C1.44423 12.7801 1.44423 11.2199 2.53166 10.6325V10.6325C3.31735 10.2081 3.58467 9.21048 3.11644 8.4501V8.4501C2.46838 7.3977 3.24848 6.04653 4.48391 6.08156V6.08156C5.37654 6.10687 6.10687 5.37654 6.08156 4.48391V4.48391C6.04653 3.24848 7.3977 2.46838 8.4501 3.11644V3.11644C9.21048 3.58467 10.2081 3.31735 10.6325 2.53166V2.53166Z" fill="#1AD0F9"/>
<path d="M6.35291 11.8233L9.80922 15.2796C9.94705 15.4175 10.1705 15.4175 10.3084 15.2796L17.4706 8.11719" stroke="white" stroke-width="2.11765" stroke-linecap="round"/>
</svg>
