<svg width="261" height="221" viewBox="0 0 261 221" fill="none" xmlns="http://www.w3.org/2000/svg">
<g filter="url(#filter0_d_1797_184)">
<path d="M85.7021 0H25.6516C13.1415 0 3 10.1415 3 22.6516V192.034C3 204.544 13.1415 214.685 25.6516 214.685H235.201C247.711 214.685 257.852 204.544 257.852 192.034V51.4508C257.852 38.9407 247.711 28.7992 235.201 28.7992H168.53C153.498 28.7992 138.906 23.7255 127.116 14.3996C115.327 5.07369 100.734 0 85.7021 0Z" fill="#BDACE6"/>
<path d="M25.6514 2.07715H85.7021C100.267 2.07715 114.404 6.99364 125.827 16.0293C137.984 25.6454 153.03 30.8769 168.53 30.877H235.2C246.563 30.877 255.774 40.0885 255.774 51.4512V192.033C255.774 203.396 246.563 212.607 235.2 212.607H25.6514C14.2888 212.607 5.07715 203.396 5.07715 192.033V22.6514C5.07728 11.2889 14.2889 2.07727 25.6514 2.07715Z" stroke="#BDACE6" stroke-width="4.1552" stroke-linejoin="bevel"/>
</g>
<path d="M68.2956 122.216C66.4612 122.216 64.8534 121.856 63.4724 121.134C62.1121 120.392 61.0505 119.382 60.2879 118.104C59.5459 116.826 59.1749 115.373 59.1749 113.745C59.1749 112.096 59.5356 110.643 60.257 109.386C60.999 108.108 62.009 107.108 63.2869 106.387C64.5855 105.665 66.0592 105.304 67.7082 105.304C69.3159 105.304 70.7484 105.655 72.0057 106.356C73.2631 107.056 74.2524 108.046 74.9738 109.324C75.6952 110.602 76.056 112.106 76.056 113.838C76.056 114.003 76.0456 114.188 76.025 114.394C76.025 114.6 76.0147 114.796 75.9941 114.982H62.2357V112.416H73.9535L72.4386 113.219C72.4592 112.271 72.2634 111.436 71.8511 110.715C71.4389 109.994 70.8721 109.427 70.1507 109.015C69.4499 108.602 68.6357 108.396 67.7082 108.396C66.76 108.396 65.9252 108.602 65.2038 109.015C64.503 109.427 63.9465 110.004 63.5343 110.746C63.1426 111.467 62.9468 112.323 62.9468 113.312V113.93C62.9468 114.92 63.1736 115.796 63.627 116.558C64.0805 117.321 64.7195 117.909 65.5439 118.321C66.3684 118.733 67.3165 118.939 68.3884 118.939C69.3159 118.939 70.1507 118.795 70.8927 118.506C71.6347 118.218 72.2943 117.764 72.8714 117.146L74.9429 119.527C74.2009 120.392 73.2631 121.062 72.1294 121.536C71.0164 121.99 69.7384 122.216 68.2956 122.216ZM87.3431 122.216C85.6117 122.216 84.0658 121.856 82.7054 121.134C81.3657 120.392 80.3145 119.382 79.5518 118.104C78.7892 116.826 78.4079 115.373 78.4079 113.745C78.4079 112.096 78.7892 110.643 79.5518 109.386C80.3145 108.108 81.3657 107.108 82.7054 106.387C84.0658 105.665 85.6117 105.304 87.3431 105.304C88.9508 105.304 90.3627 105.634 91.5788 106.294C92.8155 106.933 93.7534 107.881 94.3923 109.138L91.4242 110.87C90.9296 110.086 90.3215 109.509 89.6001 109.138C88.8993 108.767 88.1367 108.582 87.3122 108.582C86.364 108.582 85.5086 108.788 84.746 109.2C83.9834 109.612 83.3856 110.21 82.9528 110.993C82.5199 111.756 82.3035 112.673 82.3035 113.745C82.3035 114.817 82.5199 115.744 82.9528 116.528C83.3856 117.29 83.9834 117.878 84.746 118.29C85.5086 118.702 86.364 118.908 87.3122 118.908C88.1367 118.908 88.8993 118.723 89.6001 118.352C90.3215 117.981 90.9296 117.404 91.4242 116.62L94.3923 118.352C93.7534 119.588 92.8155 120.547 91.5788 121.227C90.3627 121.887 88.9508 122.216 87.3431 122.216ZM104.912 122.216C103.222 122.216 101.717 121.856 100.398 121.134C99.0787 120.392 98.0378 119.382 97.2752 118.104C96.5125 116.826 96.1312 115.373 96.1312 113.745C96.1312 112.096 96.5125 110.643 97.2752 109.386C98.0378 108.108 99.0787 107.108 100.398 106.387C101.717 105.665 103.222 105.304 104.912 105.304C106.623 105.304 108.138 105.665 109.457 106.387C110.797 107.108 111.837 108.097 112.579 109.355C113.342 110.612 113.723 112.075 113.723 113.745C113.723 115.373 113.342 116.826 112.579 118.104C111.837 119.382 110.797 120.392 109.457 121.134C108.138 121.856 106.623 122.216 104.912 122.216ZM104.912 118.908C105.86 118.908 106.705 118.702 107.447 118.29C108.189 117.878 108.766 117.28 109.178 116.497C109.611 115.713 109.828 114.796 109.828 113.745C109.828 112.673 109.611 111.756 109.178 110.993C108.766 110.21 108.189 109.612 107.447 109.2C106.705 108.788 105.87 108.582 104.943 108.582C103.995 108.582 103.15 108.788 102.408 109.2C101.686 109.612 101.109 110.21 100.676 110.993C100.243 111.756 100.027 112.673 100.027 113.745C100.027 114.796 100.243 115.713 100.676 116.497C101.109 117.28 101.686 117.878 102.408 118.29C103.15 118.702 103.984 118.908 104.912 118.908ZM126.787 105.304C128.106 105.304 129.281 105.562 130.312 106.077C131.363 106.593 132.187 107.386 132.785 108.458C133.383 109.509 133.682 110.87 133.682 112.539V122H129.817V113.034C129.817 111.57 129.467 110.478 128.766 109.757C128.086 109.035 127.127 108.674 125.89 108.674C124.984 108.674 124.18 108.86 123.479 109.231C122.778 109.602 122.232 110.159 121.84 110.901C121.469 111.622 121.284 112.539 121.284 113.652V122H117.419V105.49H121.098V109.942L120.449 108.582C121.026 107.531 121.861 106.727 122.953 106.17C124.066 105.593 125.344 105.304 126.787 105.304ZM146.035 122.216C144.345 122.216 142.84 121.856 141.521 121.134C140.202 120.392 139.161 119.382 138.398 118.104C137.636 116.826 137.254 115.373 137.254 113.745C137.254 112.096 137.636 110.643 138.398 109.386C139.161 108.108 140.202 107.108 141.521 106.387C142.84 105.665 144.345 105.304 146.035 105.304C147.746 105.304 149.261 105.665 150.58 106.387C151.92 107.108 152.96 108.097 153.702 109.355C154.465 110.612 154.846 112.075 154.846 113.745C154.846 115.373 154.465 116.826 153.702 118.104C152.96 119.382 151.92 120.392 150.58 121.134C149.261 121.856 147.746 122.216 146.035 122.216ZM146.035 118.908C146.983 118.908 147.828 118.702 148.57 118.29C149.312 117.878 149.889 117.28 150.301 116.497C150.734 115.713 150.951 114.796 150.951 113.745C150.951 112.673 150.734 111.756 150.301 110.993C149.889 110.21 149.312 109.612 148.57 109.2C147.828 108.788 146.993 108.582 146.066 108.582C145.118 108.582 144.273 108.788 143.531 109.2C142.809 109.612 142.232 110.21 141.799 110.993C141.366 111.756 141.15 112.673 141.15 113.745C141.15 114.796 141.366 115.713 141.799 116.497C142.232 117.28 142.809 117.878 143.531 118.29C144.273 118.702 145.107 118.908 146.035 118.908ZM179.381 105.304C180.7 105.304 181.864 105.562 182.874 106.077C183.905 106.593 184.709 107.386 185.286 108.458C185.863 109.509 186.152 110.87 186.152 112.539V122H182.287V113.034C182.287 111.57 181.967 110.478 181.328 109.757C180.689 109.035 179.772 108.674 178.577 108.674C177.732 108.674 176.979 108.86 176.32 109.231C175.681 109.602 175.176 110.148 174.805 110.87C174.454 111.591 174.279 112.508 174.279 113.621V122H170.414V113.034C170.414 111.57 170.095 110.478 169.456 109.757C168.817 109.035 167.9 108.674 166.704 108.674C165.859 108.674 165.107 108.86 164.447 109.231C163.808 109.602 163.303 110.148 162.932 110.87C162.582 111.591 162.407 112.508 162.407 113.621V122H158.542V105.49H162.221V109.88L161.572 108.582C162.128 107.51 162.932 106.696 163.984 106.139C165.055 105.583 166.271 105.304 167.632 105.304C169.178 105.304 170.517 105.686 171.651 106.448C172.805 107.211 173.568 108.365 173.939 109.911L172.424 109.386C172.96 108.149 173.846 107.159 175.083 106.417C176.32 105.675 177.752 105.304 179.381 105.304ZM191.09 122V105.49H194.955V122H191.09ZM193.038 102.769C192.317 102.769 191.719 102.542 191.245 102.089C190.791 101.636 190.565 101.089 190.565 100.45C190.565 99.7908 190.791 99.2446 191.245 98.8117C191.719 98.3582 192.317 98.1315 193.038 98.1315C193.759 98.1315 194.347 98.3479 194.8 98.7808C195.274 99.193 195.511 99.7186 195.511 100.358C195.511 101.038 195.285 101.615 194.831 102.089C194.378 102.542 193.78 102.769 193.038 102.769ZM207.015 122.216C205.428 122.216 203.995 121.866 202.717 121.165C201.46 120.444 200.47 119.454 199.749 118.197C199.028 116.94 198.667 115.456 198.667 113.745C198.667 112.034 199.028 110.55 199.749 109.293C200.47 108.035 201.46 107.056 202.717 106.356C203.995 105.655 205.428 105.304 207.015 105.304C208.396 105.304 209.632 105.614 210.725 106.232C211.817 106.83 212.683 107.747 213.322 108.984C213.961 110.22 214.28 111.807 214.28 113.745C214.28 115.662 213.971 117.249 213.353 118.506C212.735 119.743 211.879 120.671 210.787 121.289C209.694 121.907 208.437 122.216 207.015 122.216ZM207.479 118.908C208.406 118.908 209.231 118.702 209.952 118.29C210.694 117.878 211.281 117.28 211.714 116.497C212.168 115.713 212.394 114.796 212.394 113.745C212.394 112.673 212.168 111.756 211.714 110.993C211.281 110.21 210.694 109.612 209.952 109.2C209.231 108.788 208.406 108.582 207.479 108.582C206.551 108.582 205.716 108.788 204.974 109.2C204.253 109.612 203.665 110.21 203.212 110.993C202.779 111.756 202.563 112.673 202.563 113.745C202.563 114.796 202.779 115.713 203.212 116.497C203.665 117.28 204.253 117.878 204.974 118.29C205.716 118.702 206.551 118.908 207.479 118.908ZM212.487 122V118.104L212.642 113.714L212.333 109.324V99.059H216.166V122H212.487ZM221.253 122V105.49H225.118V122H221.253ZM223.201 102.769C222.479 102.769 221.882 102.542 221.408 102.089C220.954 101.636 220.727 101.089 220.727 100.45C220.727 99.7908 220.954 99.2446 221.408 98.8117C221.882 98.3582 222.479 98.1315 223.201 98.1315C223.922 98.1315 224.51 98.3479 224.963 98.7808C225.437 99.193 225.674 99.7186 225.674 100.358C225.674 101.038 225.448 101.615 224.994 102.089C224.541 102.542 223.943 102.769 223.201 102.769ZM239.558 105.304C240.877 105.304 242.052 105.562 243.083 106.077C244.134 106.593 244.959 107.386 245.556 108.458C246.154 109.509 246.453 110.87 246.453 112.539V122H242.588V113.034C242.588 111.57 242.238 110.478 241.537 109.757C240.857 109.035 239.898 108.674 238.662 108.674C237.755 108.674 236.951 108.86 236.25 109.231C235.549 109.602 235.003 110.159 234.611 110.901C234.24 111.622 234.055 112.539 234.055 113.652V122H230.19V105.49H233.869V109.942L233.22 108.582C233.797 107.531 234.632 106.727 235.725 106.17C236.838 105.593 238.115 105.304 239.558 105.304Z" fill="#3C2C61"/>
<circle cx="34.0897" cy="91.9022" r="6.9022" fill="#3C2C61"/>
<circle cx="34.089" cy="91.9025" r="4.77845" fill="#BDACE6"/>
<path d="M35.5044 90.4863H33.3807H32.966C32.7782 90.4863 32.5982 90.5609 32.4654 90.6937V90.6937C32.189 90.9701 32.189 91.4184 32.4654 91.6948V91.6948C32.5982 91.8276 32.7782 91.9022 32.966 91.9022H33.3807H35.2112C35.399 91.9022 35.579 91.9767 35.7118 92.1095V92.1095C35.9882 92.386 35.9882 92.8342 35.7118 93.1107V93.1107C35.579 93.2434 35.399 93.318 35.2112 93.318H33.3807H32.6728" stroke="#3C2C61" stroke-width="1.06188" stroke-linecap="round"/>
<path d="M34.0879 90.4862V89.7783" stroke="#3C2C61" stroke-width="1.06188" stroke-linecap="round"/>
<path d="M34.0879 93.3184V94.0263" stroke="#3C2C61" stroke-width="1.06188" stroke-linecap="round"/>
<rect x="18.9648" y="101.911" width="30.7945" height="25.4851" rx="12.7425" fill="#3C2C61"/>
<path d="M36.4844 125.272H42.8556V126.334C42.8556 128.094 41.4294 129.52 39.67 129.52V129.52C37.9106 129.52 36.4844 128.094 36.4844 126.334V125.272Z" fill="#3C2C61"/>
<path d="M25.8662 125.272H32.2375V126.334C32.2375 128.094 30.8112 129.52 29.0518 129.52V129.52C27.2925 129.52 25.8662 128.094 25.8662 126.334V125.272Z" fill="#3C2C61"/>
<path d="M47.1209 113.07C47.6108 112.23 48.4714 111.673 49.4383 111.572V111.572C51.2877 111.377 52.8801 112.867 52.8086 114.725L52.7948 115.083C52.7299 116.77 51.3432 118.105 49.6547 118.105V118.105C47.2294 118.105 45.7183 115.474 46.9403 113.379L47.1209 113.07Z" fill="#3C2C61"/>
<circle cx="42.8565" cy="110.406" r="1.59282" fill="#BDACE6"/>
<path d="M46.3465 102.09C46.7647 101.989 47.123 102.402 46.9647 102.802L45.7229 105.94C45.5824 106.295 45.1239 106.39 44.8538 106.12L42.5669 103.833C42.2737 103.54 42.4147 103.039 42.8178 102.942L46.3465 102.09Z" fill="#3C2C61"/>
<path d="M42.0994 101.029C42.5176 100.928 42.876 101.34 42.7177 101.74L41.4758 104.879C41.3353 105.234 40.8768 105.329 40.6067 105.059L38.3198 102.772C38.0267 102.479 38.1676 101.978 38.5707 101.88L42.0994 101.029Z" fill="#3C2C61"/>
<rect x="28.5205" y="104.566" width="11.6807" height="1.59282" rx="0.796408" fill="#BDACE6"/>
<path d="M11 116.247L16.6717 109.988C17.7594 108.788 17.5797 106.912 16.2839 105.94L16.167 105.853C15.1729 105.107 13.7881 105.178 12.8751 106.021V106.021C11.8367 106.979 11.7647 108.595 12.7136 109.642L18.6986 116.247V116.247C19.8715 117.419 21.7732 117.419 22.9461 116.247L24.8044 114.388" stroke="#3C2C61" stroke-width="2.12375" stroke-linecap="round"/>
<defs>
<filter id="filter0_d_1797_184" x="0.229868" y="0" width="260.393" height="220.225" filterUnits="userSpaceOnUse" color-interpolation-filters="sRGB">
<feFlood flood-opacity="0" result="BackgroundImageFix"/>
<feColorMatrix in="SourceAlpha" type="matrix" values="0 0 0 0 0 0 0 0 0 0 0 0 0 0 0 0 0 0 127 0" result="hardAlpha"/>
<feOffset dy="2.77013"/>
<feGaussianBlur stdDeviation="1.38507"/>
<feComposite in2="hardAlpha" operator="out"/>
<feColorMatrix type="matrix" values="0 0 0 0 0 0 0 0 0 0 0 0 0 0 0 0 0 0 0.35 0"/>
<feBlend mode="normal" in2="BackgroundImageFix" result="effect1_dropShadow_1797_184"/>
<feBlend mode="normal" in="SourceGraphic" in2="effect1_dropShadow_1797_184" result="shape"/>
</filter>
</defs>
</svg>
