<svg width="33" height="32" viewBox="0 0 33 32" fill="none" xmlns="http://www.w3.org/2000/svg">
<rect x="0.430664" width="32" height="32" rx="16" fill="#8A64E0"/>
<path d="M15.993 8.34082C11.6459 8.33906 8.125 11.8582 8.125 16.2018C8.125 19.6365 10.3275 22.5562 13.3949 23.6285C13.808 23.7322 13.7447 23.4387 13.7447 23.2383V21.876C11.3594 22.1555 11.2627 20.577 11.1027 20.3133C10.7793 19.7613 10.0146 19.6207 10.2432 19.357C10.7863 19.0775 11.34 19.4273 11.9816 20.3748C12.4457 21.0621 13.351 20.9461 13.8098 20.8318C13.91 20.4187 14.1244 20.0496 14.4197 19.7631C11.9482 19.3201 10.9182 17.8119 10.9182 16.0189C10.9182 15.1488 11.2047 14.349 11.7672 13.7039C11.4086 12.6404 11.8006 11.7299 11.8533 11.5945C12.8746 11.5031 13.9363 12.3258 14.0189 12.3908C14.599 12.2344 15.2617 12.1518 16.0035 12.1518C16.7488 12.1518 17.4133 12.2379 17.9986 12.3961C18.1973 12.2449 19.1816 11.5383 20.1309 11.6244C20.1818 11.7598 20.565 12.6492 20.2275 13.6986C20.7971 14.3455 21.0871 15.1523 21.0871 16.0242C21.0871 17.8207 20.05 19.3307 17.5715 19.7666C17.7838 19.9754 17.9523 20.2244 18.0673 20.499C18.1823 20.7737 18.2414 21.0685 18.2412 21.3662V23.3437C18.2553 23.5019 18.2412 23.6584 18.5049 23.6584C21.618 22.609 23.8592 19.6682 23.8592 16.2035C23.8592 11.8582 20.3365 8.34082 15.993 8.34082V8.34082Z" fill="white"/>
</svg>
