<svg width="33" height="32" viewBox="0 0 33 32" fill="none" xmlns="http://www.w3.org/2000/svg">
<rect x="0.614258" width="32" height="32" rx="16" fill="#8A64E0"/>
<g clip-path="url(#clip0_1776_656)">
<path fill-rule="evenodd" clip-rule="evenodd" d="M12.5988 7.7995C13.4785 7.759 13.759 7.75 16 7.75C18.241 7.75 18.5215 7.75975 19.4005 7.7995C20.2795 7.83925 20.8795 7.9795 21.4045 8.18275C21.9542 8.3905 22.453 8.71525 22.8655 9.13525C23.2855 9.547 23.6095 10.045 23.8165 10.5955C24.0205 11.1205 24.16 11.7205 24.2005 12.598C24.241 13.4793 24.25 13.7598 24.25 16C24.25 18.241 24.2403 18.5215 24.2005 19.4012C24.1608 20.2787 24.0205 20.8787 23.8165 21.4037C23.6095 21.9543 23.285 22.4531 22.8655 22.8655C22.453 23.2855 21.9542 23.6095 21.4045 23.8165C20.8795 24.0205 20.2795 24.16 19.402 24.2005C18.5215 24.241 18.241 24.25 16 24.25C13.759 24.25 13.4785 24.2403 12.5988 24.2005C11.7213 24.1608 11.1213 24.0205 10.5963 23.8165C10.0457 23.6095 9.54687 23.2849 9.1345 22.8655C8.71478 22.4535 8.38999 21.9549 8.18275 21.4045C7.9795 20.8795 7.84 20.2795 7.7995 19.402C7.759 18.5207 7.75 18.2402 7.75 16C7.75 13.759 7.75975 13.4785 7.7995 12.5995C7.83925 11.7205 7.9795 11.1205 8.18275 10.5955C8.39029 10.0451 8.71534 9.54648 9.13525 9.1345C9.54703 8.71488 10.0454 8.39008 10.5955 8.18275C11.1205 7.9795 11.7205 7.84 12.598 7.7995H12.5988ZM19.3337 9.2845C18.4637 9.24475 18.2028 9.2365 16 9.2365C13.7972 9.2365 13.5362 9.24475 12.6662 9.2845C11.8615 9.32125 11.425 9.4555 11.134 9.56875C10.7493 9.71875 10.474 9.8965 10.1853 10.1853C9.91153 10.4515 9.70089 10.7757 9.56875 11.134C9.4555 11.425 9.32125 11.8615 9.2845 12.6662C9.24475 13.5362 9.2365 13.7972 9.2365 16C9.2365 18.2028 9.24475 18.4637 9.2845 19.3337C9.32125 20.1385 9.4555 20.575 9.56875 20.866C9.70075 21.2238 9.9115 21.5485 10.1853 21.8148C10.4515 22.0885 10.7763 22.2993 11.134 22.4313C11.425 22.5445 11.8615 22.6788 12.6662 22.7155C13.5362 22.7553 13.7965 22.7635 16 22.7635C18.2035 22.7635 18.4637 22.7553 19.3337 22.7155C20.1385 22.6788 20.575 22.5445 20.866 22.4313C21.2508 22.2813 21.526 22.1035 21.8148 21.8148C22.0885 21.5485 22.2993 21.2238 22.4313 20.866C22.5445 20.575 22.6788 20.1385 22.7155 19.3337C22.7553 18.4637 22.7635 18.2028 22.7635 16C22.7635 13.7972 22.7553 13.5362 22.7155 12.6662C22.6788 11.8615 22.5445 11.425 22.4313 11.134C22.2813 10.7493 22.1035 10.474 21.8148 10.1853C21.5484 9.91155 21.2243 9.70091 20.866 9.56875C20.575 9.4555 20.1385 9.32125 19.3337 9.2845V9.2845ZM14.9463 18.5432C15.5347 18.7882 16.19 18.8213 16.8002 18.6368C17.4104 18.4523 17.9375 18.0617 18.2917 17.5317C18.6459 17.0017 18.805 16.3652 18.742 15.7308C18.679 15.0965 18.3978 14.5037 17.9463 14.0537C17.6584 13.7661 17.3104 13.5459 16.9272 13.4089C16.5441 13.2719 16.1353 13.2215 15.7304 13.2615C15.3254 13.3014 14.9344 13.4306 14.5854 13.6398C14.2363 13.8491 13.9381 14.1331 13.712 14.4714C13.4859 14.8097 13.3376 15.194 13.2779 15.5965C13.2181 15.999 13.2484 16.4097 13.3664 16.7991C13.4844 17.1886 13.6874 17.547 13.9605 17.8485C14.2337 18.1501 14.5704 18.3874 14.9463 18.5432ZM13.0015 13.0015C13.3953 12.6077 13.8627 12.2954 14.3772 12.0823C14.8917 11.8692 15.4431 11.7595 16 11.7595C16.5569 11.7595 17.1083 11.8692 17.6228 12.0823C18.1373 12.2954 18.6047 12.6077 18.9985 13.0015C19.3923 13.3953 19.7046 13.8627 19.9177 14.3772C20.1308 14.8917 20.2405 15.4431 20.2405 16C20.2405 16.5569 20.1308 17.1083 19.9177 17.6228C19.7046 18.1373 19.3923 18.6047 18.9985 18.9985C18.2032 19.7938 17.1247 20.2405 16 20.2405C14.8753 20.2405 13.7968 19.7938 13.0015 18.9985C12.2062 18.2032 11.7595 17.1247 11.7595 16C11.7595 14.8753 12.2062 13.7968 13.0015 13.0015V13.0015ZM21.181 12.391C21.2786 12.299 21.3567 12.1883 21.4107 12.0655C21.4648 11.9427 21.4936 11.8103 21.4956 11.6762C21.4975 11.5421 21.4725 11.4089 21.4221 11.2846C21.3717 11.1603 21.2968 11.0474 21.202 10.9525C21.1071 10.8577 20.9942 10.7828 20.8699 10.7324C20.7456 10.682 20.6124 10.657 20.4783 10.6589C20.3442 10.6609 20.2118 10.6897 20.089 10.7438C19.9662 10.7978 19.8555 10.8759 19.7635 10.9735C19.5845 11.1633 19.4865 11.4153 19.4903 11.6762C19.4941 11.9371 19.5994 12.1862 19.7839 12.3706C19.9683 12.5551 20.2174 12.6604 20.4783 12.6642C20.7392 12.668 20.9912 12.57 21.181 12.391V12.391Z" fill="white"/>
</g>
<defs>
<clipPath id="clip0_1776_656">
<rect width="18" height="18" fill="white" transform="translate(7 7)"/>
</clipPath>
</defs>
</svg>
