<svg width="88" height="88" viewBox="0 0 88 88" fill="none" xmlns="http://www.w3.org/2000/svg">
<g filter="url(#filter0_d_1790_23)">
<rect x="4" width="80" height="80" rx="40" fill="#BDACE6"/>
</g>
<path d="M45.3972 27.3788C47.8007 25.5396 50.6327 24.4589 52.9791 25.8141C55.3255 27.1676 55.8065 30.1616 55.415 33.1616C55.3677 33.5337 55.3055 33.915 55.2284 34.3056C55.6056 34.4351 55.9669 34.5717 56.3122 34.7156C59.1057 35.8781 61.4583 37.7913 61.4583 40.5C61.4583 43.2087 59.1057 45.1219 56.3122 46.2843C55.9659 46.4282 55.6046 46.5649 55.2284 46.6944C55.3055 47.0849 55.3677 47.4662 55.415 47.8383C55.8065 50.8384 55.3255 53.8323 52.9791 55.1859C50.6343 56.541 47.7991 55.4603 45.3972 53.6226C45.0905 53.387 44.7913 53.1417 44.5 52.8873C44.1988 53.1493 43.8997 53.3945 43.6027 53.6226C41.2008 55.4603 38.3672 56.541 36.0208 55.1859C33.6759 53.8323 33.1949 50.8384 33.585 47.8383C33.6357 47.4551 33.6984 47.0736 33.773 46.6944C33.3948 46.5649 33.033 46.4282 32.6877 46.2843C29.8942 45.1219 27.5416 43.2087 27.5416 40.5C27.5416 37.7913 29.8942 35.8781 32.6877 34.7156C33.0341 34.5717 33.3958 34.4351 33.773 34.3056C33.696 33.915 33.6333 33.5337 33.585 33.1616C33.1949 30.1616 33.6759 27.1676 36.0208 25.8141C38.3657 24.4605 41.2008 25.5396 43.6027 27.3788C43.9008 27.605 44.1998 27.8496 44.5 28.1127C44.8011 27.8506 45.1002 27.606 45.3972 27.3788ZM36.7608 47.4945C36.7145 47.7494 36.6755 47.9966 36.6436 48.2361C36.2844 51.0003 36.9612 52.1673 37.564 52.5157C38.1683 52.8641 39.5173 52.8672 41.7311 51.1745C41.9297 51.0215 42.1245 50.8637 42.3154 50.7012C41.5553 49.8388 40.8396 48.9383 40.171 48.0033C39.0263 47.8916 37.8882 47.7218 36.7608 47.4945ZM52.2438 47.4945C51.179 47.7114 50.0423 47.881 48.8336 48.0033C48.1234 48.9899 47.4086 49.8892 46.6891 50.7012C46.8854 50.8687 47.0797 51.026 47.2719 51.1729C49.4857 52.8672 50.8362 52.8641 51.439 52.5157C52.0433 52.1673 52.7186 51.0003 52.3594 48.2361C52.3269 47.988 52.2883 47.7407 52.2438 47.4945ZM44.5 35.875C43.5863 35.875 42.7116 35.9012 41.876 35.9536C41.4125 36.6525 40.9521 37.3976 40.4947 38.189C40.0566 38.9471 39.6417 39.7182 39.2506 40.5015C39.6237 41.2518 40.0384 42.0221 40.4947 42.8125C40.951 43.6028 41.4115 44.348 41.876 45.0479C43.6243 45.1507 45.3771 45.1507 47.1254 45.0479C47.5889 44.349 48.0489 43.6039 48.5052 42.8125C48.9438 42.0545 49.3592 41.2833 49.7509 40.5C49.3592 39.7167 48.9438 38.9455 48.5052 38.1875C48.068 37.429 47.6079 36.6841 47.1254 35.9536C46.2513 35.9008 45.3757 35.8745 44.5 35.875ZM34.5716 37.2933C34.3362 37.3775 34.1028 37.4675 33.8717 37.5631C31.2971 38.633 30.625 39.8031 30.625 40.5C30.625 41.1968 31.2987 42.3669 33.8717 43.4368C34.0958 43.5293 34.3291 43.6193 34.5716 43.7066C34.9389 42.617 35.3613 41.5467 35.8373 40.5C35.3619 39.4532 34.9384 38.3829 34.5716 37.2933ZM54.4283 37.2933C54.0615 38.3829 53.6396 39.4532 53.1641 40.5C53.6636 41.6053 54.086 42.6783 54.4283 43.7066C54.6638 43.6224 54.8971 43.5324 55.1282 43.4368C57.7028 42.3669 58.375 41.1968 58.375 40.5C58.375 39.8031 57.7028 38.6346 55.1282 37.5631C54.8971 37.4675 54.6638 37.3775 54.4283 37.2933ZM44.5 38.1875C45.1133 38.1875 45.7015 38.4311 46.1351 38.8648C46.5688 39.2985 46.8125 39.8867 46.8125 40.5C46.8125 41.1133 46.5688 41.7015 46.1351 42.1352C45.7015 42.5688 45.1133 42.8125 44.5 42.8125C43.8866 42.8125 43.2985 42.5688 42.8648 42.1352C42.4311 41.7015 42.1875 41.1133 42.1875 40.5C42.1875 39.8867 42.4311 39.2985 42.8648 38.8648C43.2985 38.4311 43.8866 38.1875 44.5 38.1875ZM37.5625 28.4842C36.9597 28.8326 36.2829 29.9997 36.6421 32.7639C36.6729 33.0044 36.712 33.2516 36.7593 33.5054C37.823 33.2886 38.9597 33.119 40.1694 32.9967C40.8381 32.0616 41.5538 31.1611 42.3139 30.2988C42.123 30.1368 41.9282 29.9795 41.7296 29.827C39.5158 28.1327 38.1668 28.1358 37.5625 28.4842ZM51.4375 28.4842C50.8347 28.1358 49.4842 28.1343 47.2703 29.827C47.0723 29.9795 46.878 30.1368 46.6876 30.2988C47.406 31.1097 48.1244 32.0116 48.8305 32.9967C50.0412 33.119 51.1785 33.2886 52.2422 33.5054C52.2867 33.2597 52.3253 33.013 52.3578 32.7654C52.7186 30.0012 52.0418 28.8326 51.4375 28.4842Z" fill="#3C2C61"/>
<defs>
<filter id="filter0_d_1790_23" x="0.0324454" y="0" width="87.9351" height="87.9351" filterUnits="userSpaceOnUse" color-interpolation-filters="sRGB">
<feFlood flood-opacity="0" result="BackgroundImageFix"/>
<feColorMatrix in="SourceAlpha" type="matrix" values="0 0 0 0 0 0 0 0 0 0 0 0 0 0 0 0 0 0 127 0" result="hardAlpha"/>
<feOffset dy="3.96755"/>
<feGaussianBlur stdDeviation="1.98378"/>
<feComposite in2="hardAlpha" operator="out"/>
<feColorMatrix type="matrix" values="0 0 0 0 0 0 0 0 0 0 0 0 0 0 0 0 0 0 0.25 0"/>
<feBlend mode="normal" in2="BackgroundImageFix" result="effect1_dropShadow_1790_23"/>
<feBlend mode="normal" in="SourceGraphic" in2="effect1_dropShadow_1790_23" result="shape"/>
</filter>
</defs>
</svg>
