<svg width="50" height="50" viewBox="0 0 50 50" fill="none" xmlns="http://www.w3.org/2000/svg">
<circle cx="25" cy="25" r="25" fill="#BDACE6"/>
<path fill-rule="evenodd" clip-rule="evenodd" d="M34 17C34 16.7348 33.8946 16.4804 33.7071 16.2929C33.5196 16.1054 33.2652 16 33 16H28C27.7348 16 27.4804 16.1054 27.2929 16.2929C27.1054 16.4804 27 16.7348 27 17C27 17.2652 27.1054 17.5196 27.2929 17.7071C27.4804 17.8946 27.7348 18 28 18H30.586L28.476 20.11C29.0234 20.4985 29.5017 20.9762 29.891 21.523L32 19.414V22C32 22.2652 32.1054 22.5196 32.2929 22.7071C32.4804 22.8946 32.7348 23 33 23C33.2652 23 33.5196 22.8946 33.7071 22.7071C33.8946 22.5196 34 22.2652 34 22V17ZM28.477 20.11C27.4623 19.3861 26.2465 18.998 25 19H18C17.4696 19 16.9609 19.2107 16.5858 19.5858C16.2107 19.9609 16 20.4696 16 21V32C16 32.5304 16.2107 33.0391 16.5858 33.4142C16.9609 33.7893 17.4696 34 18 34H29C29.5304 34 30.0391 33.7893 30.4142 33.4142C30.7893 33.0391 31 32.5304 31 32V25C31 23.704 30.59 22.504 29.89 21.523L23.707 27.707C23.5184 27.8892 23.2658 27.99 23.0036 27.9877C22.7414 27.9854 22.4906 27.8802 22.3052 27.6948C22.1198 27.5094 22.0146 27.2586 22.0123 26.9964C22.01 26.7342 22.1108 26.4816 22.293 26.293L28.477 20.11Z" fill="#3C2C61"/>
</svg>
